<mxfile host="app.diagrams.net" agent="Mozilla/5.0 (Windows NT 10.0; Win64; x64) AppleWebKit/537.36 (KHTML, like Gecko) Chrome/133.0.0.0 Safari/537.36" version="26.0.16">
  <diagram name="Page-1" id="lteRDFvi_-8WQTwGtXn4">
    <mxGraphModel dx="989" dy="1638" grid="1" gridSize="10" guides="1" tooltips="1" connect="1" arrows="1" fold="1" page="1" pageScale="1" pageWidth="850" pageHeight="1100" math="0" shadow="0">
      <root>
        <mxCell id="0" />
        <mxCell id="1" parent="0" />
        <mxCell id="JaHNwQwy5Wmbeja8fkit-7" value="" style="rounded=0;whiteSpace=wrap;html=1;fillColor=#dae8fc;strokeColor=#6c8ebf;" vertex="1" parent="1">
          <mxGeometry x="1230" y="327.95" width="90" height="140" as="geometry" />
        </mxCell>
        <mxCell id="7ioG4twt27iG43bkYWm2-23" value="" style="rounded=0;whiteSpace=wrap;html=1;fillColor=#f5f5f5;fontColor=#333333;strokeColor=#666666;" parent="1" vertex="1">
          <mxGeometry x="464" y="-60" width="385.76" height="240" as="geometry" />
        </mxCell>
        <mxCell id="7ioG4twt27iG43bkYWm2-6" value="" style="rounded=0;whiteSpace=wrap;html=1;fillColor=#dae8fc;strokeColor=#6c8ebf;" parent="1" vertex="1">
          <mxGeometry x="560" y="220" width="200" height="380" as="geometry" />
        </mxCell>
        <mxCell id="7ioG4twt27iG43bkYWm2-7" style="edgeStyle=orthogonalEdgeStyle;rounded=0;orthogonalLoop=1;jettySize=auto;html=1;" parent="1" source="7ioG4twt27iG43bkYWm2-1" target="7ioG4twt27iG43bkYWm2-2" edge="1">
          <mxGeometry relative="1" as="geometry" />
        </mxCell>
        <mxCell id="7ioG4twt27iG43bkYWm2-8" style="edgeStyle=orthogonalEdgeStyle;rounded=0;orthogonalLoop=1;jettySize=auto;html=1;entryX=0;entryY=0.5;entryDx=0;entryDy=0;" parent="1" source="7ioG4twt27iG43bkYWm2-1" target="7ioG4twt27iG43bkYWm2-3" edge="1">
          <mxGeometry relative="1" as="geometry" />
        </mxCell>
        <mxCell id="7ioG4twt27iG43bkYWm2-9" style="edgeStyle=orthogonalEdgeStyle;rounded=0;orthogonalLoop=1;jettySize=auto;html=1;entryX=0;entryY=0.5;entryDx=0;entryDy=0;" parent="1" source="7ioG4twt27iG43bkYWm2-1" target="7ioG4twt27iG43bkYWm2-4" edge="1">
          <mxGeometry relative="1" as="geometry" />
        </mxCell>
        <mxCell id="7ioG4twt27iG43bkYWm2-1" value="" style="shape=image;verticalLabelPosition=bottom;labelBackgroundColor=default;verticalAlign=top;aspect=fixed;imageAspect=0;image=https://upload.wikimedia.org/wikipedia/commons/thumb/d/de/AirflowLogo.png/800px-AirflowLogo.png;" parent="1" vertex="1">
          <mxGeometry x="240" y="350.02" width="248.2" height="95.87" as="geometry" />
        </mxCell>
        <mxCell id="7ioG4twt27iG43bkYWm2-26" style="edgeStyle=orthogonalEdgeStyle;rounded=0;orthogonalLoop=1;jettySize=auto;html=1;entryX=0;entryY=0.25;entryDx=0;entryDy=0;" parent="1" source="7ioG4twt27iG43bkYWm2-2" target="7ioG4twt27iG43bkYWm2-25" edge="1">
          <mxGeometry relative="1" as="geometry" />
        </mxCell>
        <mxCell id="7ioG4twt27iG43bkYWm2-29" value="Producer" style="edgeLabel;html=1;align=center;verticalAlign=middle;resizable=0;points=[];" parent="7ioG4twt27iG43bkYWm2-26" vertex="1" connectable="0">
          <mxGeometry x="-0.5682" y="-1" relative="1" as="geometry">
            <mxPoint x="11" y="-1" as="offset" />
          </mxGeometry>
        </mxCell>
        <mxCell id="7ioG4twt27iG43bkYWm2-2" value="Road #1" style="rounded=0;whiteSpace=wrap;html=1;" parent="1" vertex="1">
          <mxGeometry x="600" y="290.02" width="120" height="60" as="geometry" />
        </mxCell>
        <mxCell id="7ioG4twt27iG43bkYWm2-27" style="edgeStyle=orthogonalEdgeStyle;rounded=0;orthogonalLoop=1;jettySize=auto;html=1;" parent="1" source="7ioG4twt27iG43bkYWm2-3" target="7ioG4twt27iG43bkYWm2-25" edge="1">
          <mxGeometry relative="1" as="geometry" />
        </mxCell>
        <mxCell id="JaHNwQwy5Wmbeja8fkit-3" value="Producer" style="edgeLabel;html=1;align=center;verticalAlign=middle;resizable=0;points=[];" vertex="1" connectable="0" parent="7ioG4twt27iG43bkYWm2-27">
          <mxGeometry x="-0.4113" relative="1" as="geometry">
            <mxPoint as="offset" />
          </mxGeometry>
        </mxCell>
        <mxCell id="7ioG4twt27iG43bkYWm2-3" value="Road #2" style="rounded=0;whiteSpace=wrap;html=1;" parent="1" vertex="1">
          <mxGeometry x="600" y="367.96" width="120" height="60" as="geometry" />
        </mxCell>
        <mxCell id="7ioG4twt27iG43bkYWm2-28" style="edgeStyle=orthogonalEdgeStyle;rounded=0;orthogonalLoop=1;jettySize=auto;html=1;entryX=0;entryY=0.75;entryDx=0;entryDy=0;" parent="1" source="7ioG4twt27iG43bkYWm2-4" target="7ioG4twt27iG43bkYWm2-25" edge="1">
          <mxGeometry relative="1" as="geometry" />
        </mxCell>
        <mxCell id="7ioG4twt27iG43bkYWm2-32" value="Producer" style="edgeLabel;html=1;align=center;verticalAlign=middle;resizable=0;points=[];" parent="7ioG4twt27iG43bkYWm2-28" vertex="1" connectable="0">
          <mxGeometry x="-0.4949" y="1" relative="1" as="geometry">
            <mxPoint y="1" as="offset" />
          </mxGeometry>
        </mxCell>
        <mxCell id="7ioG4twt27iG43bkYWm2-4" value="Road #3" style="rounded=0;whiteSpace=wrap;html=1;" parent="1" vertex="1">
          <mxGeometry x="600" y="445.89" width="120" height="60" as="geometry" />
        </mxCell>
        <mxCell id="7ioG4twt27iG43bkYWm2-5" value="" style="endArrow=none;dashed=1;html=1;strokeWidth=2;rounded=0;jumpSize=0;endSize=12;startSize=11;dashPattern=1 2;" parent="1" edge="1">
          <mxGeometry width="50" height="50" relative="1" as="geometry">
            <mxPoint x="659.41" y="585" as="sourcePoint" />
            <mxPoint x="659.41" y="515" as="targetPoint" />
          </mxGeometry>
        </mxCell>
        <mxCell id="7ioG4twt27iG43bkYWm2-10" value="&lt;font style=&quot;font-size: 14px;&quot;&gt;Each road represents a parallel unit when it writes to its own Kafka topic.&lt;/font&gt;" style="text;html=1;align=left;verticalAlign=middle;whiteSpace=wrap;rounded=0;" parent="1" vertex="1">
          <mxGeometry x="560" y="580" width="200" height="120" as="geometry" />
        </mxCell>
        <mxCell id="7ioG4twt27iG43bkYWm2-17" style="edgeStyle=orthogonalEdgeStyle;rounded=0;orthogonalLoop=1;jettySize=auto;html=1;" parent="1" source="7ioG4twt27iG43bkYWm2-15" target="7ioG4twt27iG43bkYWm2-6" edge="1">
          <mxGeometry relative="1" as="geometry" />
        </mxCell>
        <mxCell id="7ioG4twt27iG43bkYWm2-15" value="" style="shape=image;verticalLabelPosition=bottom;labelBackgroundColor=default;verticalAlign=top;aspect=fixed;imageAspect=0;image=data:image/webp,UklGRkxEAABXRUJQVlA4TD9EAAAv+cBBAE04jGS1buZ9LCwT91+wATsdRPR/AjIT/9zb9oDvlC+A84UqT2xP1HkAmJ0mHtmVZh6A9kNvPDOgdx7QtmqMbDf8RkKbgFnfUiOB13kAWBHBaaXHGZLXWsf1TsUVewNrR+QbCQAySMZea6PTjHduAsjMRpUaJnntfVxHpUrdRTJiHRGFGpIs4pE440gA6tSd67yAvfcmoI7PYsVCAoiD0AfkjTpAfQIgCyC/0M8AG9hdDUn2BK/0tCfw7FfI5AAeqbUncKepPYErzW1P/IUAXKwAk6kP2vsGTPzhmVxIUrY9kpCHJhS9dNZDeWxXrlyJy3KeNRSh+SniWH/SfQRJrm23jXQqdazwQHBQubiAHvf+V9FjgZ1z5XIgCLmOZLu2UrijEyIif/UiIk+M+P9P8NA62nre+/e4uur/BNg4i2ix/ft5xP02bh2CMRgAKsV2MYphjGIU4wYhI6AYAcbFKEYxrgiCEIBiVNsjwMhY3DZzIQgIAIxhNAG2bMZE6DwDEqzGaX6aQCVWDUIhAkIJjHEvywS8OrYq2QkCTKBTmPDmlKwCYGaGY5kNUPw2tkccwnNWIdRFSdcIxfLE8sSScQxIoRAltHs2sbLygN/HAoFvVLyCgPUdKOv2MV61CnYBToXN5dpe7Q2AOzbId42+jFYRuAZa0c6ndjn11dzO56gAubzqshqriOAQsJv8mDxO3dRN8eYxIDIarLY/zO1nn4Y21tvdF8u2d1Mn+H079+cZqDQAp4+zsCClVVoAEMCpOJ7icA4zNhMgkFIoeyeirNFOpzBXcAySUKavTksZwOPtdNquJ6Th9kBBkOw/oolWtDxEI67XbX8NqNdccsol11VI31npDQTQDm27m+3VZnu32V6t27s1OgDM2EWuRxmpAIf6R9vuuq42vXENgltU6oSh/hv5yw/Fu3unnHLIIbu80YFT2rXVvVk1KiO9wfOW/K7gh0WzNpo74IF9q/1lLk2Y1H9mb3QvHtzeAj+ElJ7aXRKN9JVeUm/f1tvnuJPupBEgnVOJgSW3HV4dtt3mFqCkVjXC+TS1gb4CAH3oA8c7aQZYUmZ5DcCXViFXU5cZSRKHN14DaH+iAc75eSpNQFrSgcCu/h2zS7qcJo3QK6UDnZZw5ZK/p/JX/T6A2jkB76x8ye3WNUCvlJ9KSiX12l5b6hflkrSWhHdWPMXNFfJJead8PecbGI7bNpIkyfln3Vd5FvuPiAkAJLSFdPbWvmntn3sQnCFeDqkm6WTr5afcec/jQGq0mEpUlKHVlfeoLq5MxsswLCwJdW8ygxe/aw1rl7bkhxVSSBA80bakSJJtbUvUzNyDIZmhmPkyM/Ph3oUWMzNzi5vMzHx7hyGhGG4lM0VGZkaEu5uqNDLC3UxFPOpSwwK2bcfeSOfz/q7bmclkbNu2bdu2bVsd2/YaY9u2md1G/5/v/16/1rYd23bb1raf9/P/1bYzI7K1ALXUrGa1pjWtoa3wX5Wq0LZt235xnzEBmmvbdm1pi8Zc+7744kdrLavCAg2GUMQHSjRK0gZsAAcoag/ImtZaZ7y71xypMyIuBniybVu2bbuNahv7ufCyAAR9hJAM5AbJQAgpQWaQEJ/8ztuza61tW9a2beljXffz/qWqciAKPGmSAwpLBig0lob7i7e9z7VnTIBlAYDUtpKquluyZFuWKWAIczLLzMzMzHijE8MXMN5498TMDMM8kzx+Yb/EiWNbtkVdXYtvjnu1I8m2a9tKjTHX3ufce7nvIy2tscAisGgAgYWPJVuAhYkLfSGw8HUftKX1k/eec/Zac/i1tm2ZJMm27vt5/9/MPNwzoLCZmbsl7gNgnbu1Ppo+hdJba42Zu+WWmBmCyez/npgABf6/3LVG1ycIgm4oQggTQLAgEt5aff4d318ZSwsARAAABCCIJRAACJCQ/j6/3jj6pgo6VGErU7HbsjmmsgnjykqaFRWasxb8H5AGvL6DI9GxOD7aMszquI3toFECJEaIgCCxBAIB0DEH1sSGnLDlJHj0cDZvDphpdmUzua42cbf+bfBuPdsr9mK32GeIT/3hJ3FomhmVkECRBEhA20fFQt6uOZgtsJv7mUuzL8xEHTZhB6+co62HDFBBrdXPDfFdXy5RDp+RRBISiSVoHvuwLqr0UU49rNiScEHYJJ06mNAHACBUDLGsFNJwFtYHgwW6ACD8a0qiBJ8Wsy96iIUQtPk5dDmVCABAkFZDwFxYzEJzCVauV6pJBZnGHOrYE31BOJy6B2Hzcvp4ahVYl2wY6BEiMjJzd0stqdByiqJnuS/5smhrmGZzcvDikAjWl3pDQRFNKI3kAgAQQn2h6sy+cCh6Z9gXFtiE7D73hI2LpuGgRIPUOLE+QRKpbhqZTwmP2LdFM5GwmTh/fKIhRq4BLXgCAITQWLIdnR6PviHp12we9l0eDClIs1GgDBNIdX35P3KkKozYw7ckTzETbQbOXRQaBqRqJNAooOX4A0CQipBtL/uO5Clmw9jbd8SJhaHD6BkNNPqTCo8ACFIRsh25TwnfyEQYb5ImVILhJTQAgW8sCR6tKzVS3Y9r90XR54fxFZq0CIYXEZoA+K0dv+8WQGis5nlP4fOSB6IxFUZHY2FURaJG4Luue4pfACBppeKRoiXGUdEUhoJRkUTQ8C/v/W3PgBBq+yfZX3jb+JHGFD1gZAEa/76rn0bkGMByOf8Z840/vuZtX/58ifHy5gniL8HoqDn45SCxngGAFuA/hqwyRu49E4IGxbbwn5RpUjG+AVzQPw3uhMaGUvQuZP7ZUZlJnXNapIVXki/47ie3s/FQtMSfgkaFNuCIuolzAKCF3dHLZeNAVMy0YPDp8FPzflPwDrTsdf3q8PnRLvfC2NI3BzSM2gH4kY+e7h5AqDqfeqyac6Gqu/BC00JbL6RfQRrhHmjpGV3HtU5PUtfpTGNq24LH8qM7LqHBPdCy96X9QEHxa/Ab1K8vNC2shdbgDSB1cg/gcAmRV9V0oAs0L0l7cF80G4UW/yAW3ohjKedT/afQ0jPQvCCjZACXKZSG8w9Cs5ssBI/KiQhdoA2pygE60YuNHQMAPzHrtUf3PzQCtBoamwWQ92mNA7If+u6Ocyl3Tu4vCVoVQmvzAGKOhDEAqjLszZy553qCqB0UajKBKnxSbgxA6thSv7lc4Yl2nD5MkgLtCmXP5gKavT+MAZhsmamdjki9lMOKoGWxxbjNBn4lv0VLYyCFqc7la9ND/Dh0KWgfhTHlAz+Y3kdGcA+EQ6P8tt97ceYkitKeMDGrjODXvVfwD7Y0m654m4f4sP+ckAjaR2FcOcE3x+vf1n21f5r1ioL+yJ89uHg5qhTIUDQ5m6wA/uzN3APVc9OmepsH2Nt9aEIQ5BgJY8rs1wAy7zT7pOkPVcdhb//ViyDLQZxhdJnBt45EJjgH07UCqr4zydjpA0aAPMsJqt5yg9/5RmjTGOc02z+2IgWVqTF1YDLIVZoVY2QHXxuDpMI3Ca9HIuhV98/m/vEKhk6fH8qmnKDqlR/8Y94yVstcgxoRQIoCETOHToaFbENLaGQAQuhHvonqIAIQ1HwGRoqW0AL5Vr2BSY26kWsSzikAACrVvxqVhaKJgSDjibmzAUoPz2BJdQoAQMCCkF9oVPSCnDs9jMBUMiXPlrie3QUqNdhEbhrSj0HWE/OyArCSOKbcjNYBEHoKyksUZljIWlROYudXOkPwC25HG4gV+2XOrGYWpFQjk1kxJjvws+fzK2iZkK0HKuEPHRmtvFNoNQDyDnRmYQh+4tBfCF6BgjYAgK+x2VAhdASZC+U4luAnL4rMKw0w9B+bTIpx4qf6QO4iqWcKfvQIBKdQDEPBO8lCatNZNhi7v3T2cfCrfJLYXhANBX/kyCBUdvASMChYA+HUbFwSxSAoQ8E73baGOqsGFqPMwS/sG8EjiAElDXdQqpbKaYKuLARSM3vw0xc9jsyjVUFiODjFGq3UfxSa9QCLQd1ZcwB++usIDsUAI+9A1UI5iVR0BSZFxVgewI97HJk/NaPBZQZqLA1XTasPGJlZngvw419G5o7GNgCLNBWaoBJY7c58+rBUgNQebxotrJo9NHP42luVyIrQnZkPsFDVjQkN/kE0qjNq4tQRsAoYDaonmFwwJ+BOt/mQRvKloBEonZFkRjt4USACM1XPltOsFzBNJanmShE1A7W5xR1GOXviihQwG8zUAltNxQ2omUC7PClpCKADdrj950xCBHaxE3MBR4U/zgiOnPbZDugRDxmGsOvkFYHliV6egIR3RWR+fGNYU7CK9qg/bHRx8l48OzBdTzIzL1cA/VFE8MIcrMYggJ7y0PV27R8Yr8ZvOTZfIPANIVT9HcG8BVpMEo74/V1XbkVVwtjM3HXGcwY06kS+/m4wx0wLEIg87eEAAIXA+EQPcFf44/df/zc/9mf3Z7FeqjEFA7Sq+gqPB7hyy4L5iZn4A/DbP/4PbvcXv/Gvn9/658/v/OXP7/7N//rxBT/5A/NevvTYeeBfxYbYQKyVAF9Y+GvfP9rTR4K5grl5eQR/9P7bz//7/d5f/c9f+7ffP/ofGLGh2Jnf/vvc7e596tj/2hSdrJAvBUlP7fuE/q+ZqyjH8eg/tvnOO2e9K44WmzQhaALwn7gqL7ff/8C/+Zf//l/+9v/k++v/ywLIWBnri8g3v/mp/2QBZPv/i7f77J/++vF/2oc/tw7EiqVlM1dE4PFDBxBgYz289IX3l7/8/82v/PEP/vzLX6MhFgBYgAEAYwE2o2IqSOyLAMlSAQyoGADCWMGCDABgKOe+P//85/3Xv05z62iYeyPBms+hDjZm8eNv/3PjS3/5zBd//cj81XzOz4fh4gUEAqHLWChgOITwEAAAYQgODwAYigEaIIyhwwBjKAYAEAaEsTEQaTGFLz7s60pAMbxx+D4gbP/KP/69//srDc3Sd/e4CxvaiYyJYo1DhNQBG//9a6/wm3/80ccvtF7eepeg9wdoanUYLFaUAEk9KGduoplJUoagsjeX4DFTEjkmMllsuRMftpSMevnelHRRGOoLUY7G7Md8VZCR1P0tL/aoaJ3b3Lpqw9Ob3qfEt3/lvWesfAXuFox1zNQq609okDoY8i8/+bUPfeBXtv/ynLQpR5hRlkf3mIHji5lPMiVvKgx1rJNrzGLIMRkcLOKMZ+dXc2ixZU1czZkttnRgOZl28VBdVwzlbn/7sj1eyuMTwYq31K4syqlZ03YlSyFXD/zrF+JF1ejzLuuFppfkzgtXoQ2G/OG3/uNzX/W+l09VbRY3BFLQWYfR1gw1eMEQFJmBR7oSEuLB4SYTy31C9jrWQYVq0hVcYS6skypZbGB1hH2mh9ti62+/JwLYbLsYMTNdkbWTXD3sUkggwfYq9yzj9hMGf7Rj8f+DRsWUEsZixYHDT2+ePR4Me/lT3f3+H75l/fKIT5RQugGgZNIdOamsc7rPnM4okVPOlAbpTrodytikDO1mz2Qx53Tm7LeUBMY7NiBZOfsaKglLAF+WW0oyxDgyKuDDi1vquYa1FFaaTE5dHnXZYvm3y9UHv/e8Z0FKzT8Pa6zqNb88Z8iqqQxz71fP+/U3Xj3y619YePWX0mPlUBwoMDDezYpGzVm5aPDgKjrYxjVhMtNFyHAoGhqycfG+0ykrk9qJgqR2HmLz6og1C5jrYorCbFke3w4OQ2G89eKhZrujBOX4JntBP18067Ottd+54y+3TPvPWHH4FIqx6YVMzc+XYpT6JzD0t/7xf//i7/5v+ji5DDtt5F3g9EQTUsAF04ZU1sByJdzkNAwQKCIACJSkSIEIKQMqDAIgAIJgBOAIVKBGSNKGCq8ZDKAcV7FgM2AhZNo5ddBMAGvlaiGimEbjcq59t/mX/36r757TX3h08wHj23ZeqXKF0JkFDP/hh98jybDLbMbJkKp5ECca2Zq5DraG1sURio0EpbwYicjUOCwxFQKkQACKANJCMAEQBAdERpRakS2fOcfAxK1BJKzpQZM6mMqsY2ikhhKZXS4N6DSvkqKBS3f4JrZn520z+WXGRDOLAU/J+l+DEffH37tv4dNu1+V5WskPgwzXabZ8eAuQc481SjLccgNOukqHgqVFGRkYhBSGE0CQGBhQgRQA0SAJGUEQQiLUuuzQutm5a2wJFVsFjDgqQjSMi607PjqMZ+ka800TKGxSGhGLfWbZ0chYZaYW5QlJZxYwKrucLFc0M5nMYikqQ7F69YhXLENrw9QYcCJAZ2MrIksAtAK5gsgGEpBAMQCyxQVLbDmAxZZARCrcz+lBZG1Yfp4vaBmwMmbqtqw2SsWZbBbAQHYpMZJKYEFiyvZijWHB0flFhYaKkUyLxhNrrVDSTOYgTlpaMjZGxmWADlMoplg5AqgkCeGIcWIFKEewiEiZAECEArpMxZJZIKEB4IbTKNTN7j1RgoxDi9qygHAcY5FMi1GBrV2G2aRPsGRJKtWWv5QSsC0a4Mjad6RhAIzMq0920W2Y3EeIqlCIToDJatmLCTTgyByKzIXjhDK3P/Jq10x3HV15QZwWJxRBaMvGamsrs8elwJps5AZGOhp2I8E5cOl6PPTNEhaQg3TNRnaFLlt3uIaHK7NRsiLZbP3KJJMiTVV/9MzyaWSs0tyq/JiYUTlaBYzOmaoZ6dx4JX4ctnHIuUeAcGJna/WkDlTOJOSz9EkfZz/52to+/UN+L72QY8g6VUbnqMuIlk7gMea0MJm4kM0sYc197G3m41R34jzqcu27ue5lsHk/G4BJwbB+PmwJagZOzG7OvpjeSF8UtXWWlikSQtb9vpAXjIumluBG/zehaQA0mLfd2rqxPGyGLaGlWL3cqa2A7Q/dH25/OI9klAtG9OsH/8R3/vJ588MP/8PtZRYvr8u1Tg5KHJ7prBlz0Z4cW2Vb3SZOyoMgyQoyO31xtyP0duXxrvTu+ic/ff7s1/vR3Te/3M/+8efbf7r/ov6weUtVTtxm71oFOgieD6vxxPoEU8vaFmJVKapDGNqUslaP392HnF50piYVHaBJ6a3xlIZb2hw/MC+OkZzc5kFR0uvxfQEApAYGpt3bddtHiS0C/63VQ3tZu1lJs215tnDo3xQ3vZvlo96N5tXCJX4v0Q2oF/LzMKuV4zrx5uXgbHB/vfx43PzBd/7TjN7Hwuuzuyc4YCNaFkJoAQKwV+D0hBaGEa/W3NGFVlpJ76ZK4NVnFq+cNicGf4I+0GiSLeVqHJdvNYzy7L3asV4z/WzPXL4dg1ykAjWWTe3+8c28+QEvlp98xMvJXxDvMv5E9Xn0E7V3li5U3lq+rtWno3Cj/NyxZ/AZ/7a868f8ujlrieM6dv2QnTe8XseuH63WezMTT6m9Stzc+P43X/3sy09/8f/SOdOZxe0UaSCJvdAxgeWZ6YZ5m47wqd8pwtjIwTzDjkh4MdGuwzfU+VBNpKUu0DCabYwZTA9neKwmM1vqWMMZtMjPBWBpJgzXnl4bjT5vgyUZtxM1lTY3VzWtapVWLXViLtNEF32UU787lWUOGnFkT7pTqX1cW06zl+2QLU9aw3xih8AphtITew+nTW6PndPM5LeM5kcS1ExgoBtnZnCHzsRqgdfjM5+DqQPrxYJmlgY+Pn0XARo2zfM+7yTAlwOWp0m8ROAESQzUdkDhtuKsN67HXnJ8JpdoOrUCsNm7CNxurthNIqOuEEu1UquAzQUpIHFysriOQ+vLEuxoCg4me0xZy4sRFuLRruzJWLMcwtXdhO0Rz6pFL0ey9CCyp17PXl5RpUKFsMYtHoQXK1X1cCEOdmzvSUDT1mUPd9hzvPnZfh7stdOxMjQPCXG9ZkODrpKOYM2DrueNi4c3CuBWca6HcASrkdgY9JhhMq904gJDpLUyb07AalaTnlJEFvvprMaGq73WgpoewzJL9KRQnV7rqdwc8xEcM51j/OCo/el+fO1hvfP59sn5qbUwcV5ek9ZmQhZxtj19xMCLB9VN4GExqu7U1EDjTMJbbJOK22/sZgkvPzfBEC09D5YtPlw8Ju2t5089Ht38uFW2SbE1NQyh1FhAcRykw8QmJgHZGdWtYxLXi2pgIzvHTi44tZ1CBqskViQGpR2s0I1yH7+JGVUmSZDNGevC42mp7n/6n99wxjOURSjXyWpGc3BJ2LKhXS/XnWM9SEVSVzug+Xh62icdaNubM82bN29stF5e+UH3oWJJG3MC9AO3p2qHpe5QjyNEnDRZs91ItM1VVSKODt2MaSI1jjSis2LZ1Mk7Kj0Tvicb92WZQDhkKtbHBF1xSuxlfqze2qs5sgDUu3v6u/t/fMY//hVusbh6eWCzRFzLHKJCYZWCvVgM+87IgVCtbBaAFklTThamiw8+YQMgw2TItKQdPN7N5Q8X9fGnV3/QrQZOc6sqLl0rZCIN8QcWlEypYie29IDJMShKEtzpjMYxEoodmIqo2YYJ6UUjPDyULrHFjjKOZTxdW6na6b3fm7P3JR/82o/p4eq///68nZ4XlsmjmCF2VOYjD0yQNCx48c6MZldcBx44jSC0gbkGp6m1dQIydOOQ16AS11jrvIV8bnzW8/nUu3AGbCfTBpBSoOOszYXuZWediwk46Z52f3RQXuGuPq7tg1D7ut7142wj5ZXJrGtX7m0XjbGXM+OqvzEMOXmkk4YiqzvXaq5jsz+6ez22f5pzMLk3pRPSXRmsNiM+rqYVJjFb5sXmVquahr1XTwYKtClkKVJy9mkSkzEaZtFTks/Os7czvR9Hl7s/eKa5XKx4dS1bixU7vk3GRlBxDGjl3MP97Pjse9fXl/mkKg1X1M5MWwfk7V1+eZgPd27/FeRtf72NuF+Yrx3aXp12WQli3tlmyhxFd9gaNcnxez1Xx8uwPoCXuirpIxLw9mJ6dYpNtZPOVbFeq9CB804w/9BZQIBWMxjW2ms/dUcKl2diDhQteXyPlj7NITqfHnTZ9997kqEkPemGY4koRULzUmTZHlsR6fP9jS9aX55//vvweJHkndahWtRY45HSKfP4xUYPAe3r7e54/w3/99D/e42PAbjaFKASEJR5VCKDJluriO4eU24iYWl134BhLtQEg5KqpZTzrIenwWuXqnqZe+M8BAXapWMUBh2XogswKDSf13dp3jO2bDD3+dbnCmuFe0+iLRF7qS+1x3HK4lCjkWu78SPfOn/6poX//Gl4/F+8iSlVMeUajGxFJLQagcig9+z2LLt/9jX51pfla2unz5rz+S8vzqQPnYkjvUHUNzo57/tn6ot1H2yp2kDafUc5NlSkS0Afi9LO/Dci7KUK6XQnWL/viFsIQMtMhSnU7Ofb1TZpmJ6IYpx8ZJLymPN8czK+OzzfVU2kVO2EcyVwMHhEpmm+b4O8aR6vHrp/R6S37El94xIDGyBAAbHhQnaAwWi0ZMY46Xxr+mWuns1zF2+P0542L8XWwNva7C17XD3ObheZoIQoYSvCcCwjoY9x0fApZRuqoZcqNb8Gcw9dBFo35frsdI9x9bQDIYUI5GYLA+fscp+PnyZJeDptd2RNX7awUbItiEq5RYrz6IxOsue4Ue3GV9aByCzUsEAWEDaQggKACatAWQGO2Lc0t3S+cOqhWZ/QjxrUful87KdqXJu+xOsdUFQk6Gh2ws1dWzG9CvLGNGzFXbXLZF6pZmFT1l47foT2RItHWul0znlyCAl+0Dwwohp563h9x114fhzfn7sOkqoYyFSKkZTkPQCZ+c7zffXdv6fX/2YfIAyFVGiAGgEgCAvWwQIQUkFYNRYoa7EO8sc47zrXfxn+8D8a13d/+uzjT3/qzUPe9PT5PyJqjBFksAyz01rLmrF1zXGcuJZdfUFDYL3SziN26xZr7JHLQYZ2+nYfUq3nCuBxNOrMaTqG4zad7ejMxx/C7WF4dyKFy7wjwyCwVBwAdnpl/fvp2BQCGyCwSEKW0EAKErKQADVCKARAEUAaaVQWbLhgYVruELfjl3+aOf6XctU6wAWKgAJZS8h0ZwwqTEag5RQABJkXGhY3AbZfOPyA9QUQQMOajQyI9J0aImFq+MDJg5NDxwKARhoBQHb3Xh09ZNt99i6ZlbvGap8k1ZdsL0/b83NIHe8z6XB9VN009MCXAnTiYZcVoZAmH7Rhbl5weqt4lkWzDIF0dlvpatC9DlvNW71rn37789/98f998h+p901VDg8Y8EJ3JpeZdYWHhht799Oe/c54vVBlwPZjFy+sG4C++txghb5dJcYOACzcjeDNDicTocOC7TIZlVYAoNlJXePJzUxjmTP2chdZQjEVkrjB3dMT78uQgNtdVi5SELa9Iua1qe2UaLEqgO0YQ2UigYQphWCPrWbtvgLSovpNd0Nns5zrhn1y+SnTMrYToTko9LVqG10fBPp4ZV6nkE5/2pJmYXQAIAgpZqm8XeYaa3ljhAWRAMNaoAFEwjQdttnJANvNvlvlJNg4LJKjEKG7hzB9Ye7ltS/v+XmjP24SR4Yjdzo3IMsUN5r7ZV9bpg9TQzVGtpSTJM2EzZwyaLtW9tZss9rgLqbfo9pjpbevXVm2fTJWuyEW0pTFxoJKuzAxPNKTgdetzOK6Y0qqpcEgIJwNx2Nv5tWYALT7/lNsFt4UlPiMmCmlognJd/ZqOcTy0EvHeTDOudoIJZbSvpQIStcWU4WGMgdzw4igFZZDRQGjrWebuDIHVoH7RO5MifO12oPtnqgYsek9HYfS5tnOJfGeLrauPSa+Fnqd7up76LosVROregO4EW5HS4AAbZPeo4CHsxnKSQ8AoQY+V7YIp49vHZCQqhSCARUYKFUpalAjJSALIDSihVl7yIOwYJYgLY1BZG18pB7agLgqhPRFXLNZMcXBMMIuWxeLdm1s3caGFRq8rGjnviQYKlvSL8XoSOyL4ZoNCJBhd/HX6dfejZ163tfDPsZEJwzZ95Rv+7qPDQM1b9msYYoKO/3acghSgxPjvqURgFVkQeiwGcySmgRUoSxjPAsqu6G+cyomqmuw59F1bUlghSSl3+yzi0DFE9YNw/pc3+7Cy3QcW7YI7ErSmc1SXtAYyPO/P/9yf/7n+6dv9LGfD2/wcNPpUacDAORy0hW6eWoyvH9yWOeVmlBm6To5JyTY4YrWzLg4Y9MoGNZw6glWGMxxmgEHD0UZiKKS6mOA9JHKy3QX3KWrpjEY20iHY0h1rNunVe++Xf4jH/znzvAqhWGmE+wqwpw770SQq9ntv7/vdN/epqY+OMcTPx/CSsdJWRNNOe0Ie/mnF4318R7MpQNyu3gQaiW0a8l9YtDNUOwCB1tCOYOE4EBOBQFagpxluC802C0VghUP3G6gLB1d3NwNRe2+d3Nvt//+nmaezkzP4/UqJdu2YyeEIx9cf2joL0ogG4qc+/VW+/Rt3/tv78/d9+6tv/7rb7/pd71OfOmOe2upIxrL/UrO972HEyvsTGohdogSwjlSammGRpV0AMCGiSRJqaQuthOaCMuqdZejxEo9J1gh1eFhZ+tefJ/f5/Me93azdfE8fQan3QxMPZ+pzCwKXrRntQBmSfbPnSJAvplBwxHPziCp0ah3k9h6WCoay+2b+5z+ePdvqubsxSlwRERNKskhaaS0MZtxUBsSo2ImamEky0wZVM7bM4/p5VY5hrHXfmB99dYnfu/4trZoO7F9YAXasWi6A2Zm06WxIx365Ma8ysWL6n3OTKo7/sG1CHKWxvcK0yelZoNWMoZZ1MxZagr61u09TgKn7PgkLcr2NC8NgeBjnxLRl/8P6/+Gvg5505ABmaykoLTwfFFjHdJFQ6phDOwC5aQWnsHJNEOo9n2cxfiMhOauZBv09nvkRYRX1gRWw+jds/hC5nksDEgUpljnQAjkUZTFyp5dSI539viw+3ge34ywMmwMN1cAFW6GJcdVkrFLBgEoIhHIlJBs243tkqGDtkWB9ewNq6wgh0XFAHOSYeXMpjFBYpBBcnSNLYPBa0bSV3Pp8qzMTF8xbit3z4zWayKSlVHMXAySGN2Aiaiu9HFVlWW4b+frjJUeaScThmQsFitXuyPVzkFoCCjl4FFwcnnTooApIC5bxFjQyCoGBTE+4qjQKAwsqpU3u5jlSmxMBe1e5dK16j8YWeu7s2yp/Q8yz+58i8+ITCmHGpvjTGgHYlyT6xL3qEw6zuE24JFNVUjbYySi5gyy20l60tpARWCVSa1GYWtEgpztqRkDOxRP08rKuh6lxXBSi1RrIrMdD1HHY63jOnZ3QoVZZVo13mvUtjNDYVRg9Pc3emXpHpC7eLpdHUKJDFJzBjiBzBw0gOmbEtsenPfOGJDptodEgBEQLBlFg6wDFFQgRr2YU1jHC0yY2VEn7zOWbifTI1m3JgoJE5Gx69gucQ6Iu27LjJDI5borqBBeY/mfVt4GRv/j5Of9aHodZE92h3tj133mrsk8mqBygiVeXQPE1PhUlgfO7viENZnQjtltjKMdr6Zn4xq7N9PRwAIBSAoAHOKkOm5zjfdp5ohEW7ItBAQ0R83WNarp2MZW1Gn3BVGXFolcsOolLDixBzC6ZY5C5QL5oxNN4Hw6b66hythyhRbOCcQNDST077fd2h4s46UaPGTk3ltElHRzflzReKsjL0RJIVpgpaYw14RKIZnK6ZpreGAy2HixYTaJU4EzCNcYREgN1dlYJ2IdmUTNRNYrDOzqx649yMjTu+iO3eBiIIPF3W2IWlHSMYgBH4lUig5z3Hcme6zxxcXomCS511keAlB3XrMtgopUybICtMUapdIhlyVjkk0d29WHJJBSOCE4QLRYlqFQHYeuoMGuGqi62KRrYBCwMi+QCsv/DGxqt3vWOpNbMGjWuXfU4m3nwMxJZYOKgzGhb65UKv3UpRvDoeeMHGHKbQeMRacv82ihUcQKI9kIaN45a5DLYxHoq08OAIScsWNYUrMC2Ikq004yOBJcZiJJbEKFnFTpwuDrD7p6C7ApFfuXVbgDLGbgIHIRAadvELJFWJHqrdspbpiaZtt+awdNepjdktSw9DAQWghgiQoi0CG2rFQZMtBVZxcp6VSZUX10KEUXpdUFmUIOQu5EoQGMxSIjg6lZBH19ibLd6WMZeXb3xIBJK6maiDm63BUSqLX6djUPO7Q2tk+tTlJVHblgNOlsWz5im1i5bUNMLSKnFDjtq6tQFTW17/ru5GHxMonSZsLttPFiCpR050AIqbnq7M69gbtEJDsrWZWpIWyBWF/fjj0Dm93xfdIxV2DUZUXVIBGpFHLNHd3MyAqZaqJlBudtb8+KHWUy5kHu3R4obDwnVsBViIA1ioC6qWgCSGQl7iwBxJ3KNa0OB5F5WA41mag6iJyIUjqubGOtQ4RiFsm4jRjma0s8vxAwevo5pTuthAideaZjQQwgxnvTWnsNWbmwvotqsnVjnyipYzcWmliSk4+dGgrAgpQlS+662SmLBaCuKCZfVMCWnYBlAxaDAlMYgCpYXnWzJRBRyR0uggKyKJQKX1lk687A6Dc8mxowmgHGwbKK3zlEVbuWXQzfzaeUZDhMiy1GBBISuQCJSlJDFiWkII1hlbASSIEFkQBjUUUxoRST0KJVEUAqQTlA10HpCIS6geU4IUBV1ir4ym9ed8T+rHzT+wJWwLX41gVDLMUKsUmwDNeySbwY6mz2od8egxOH5dHqmAdbWJmQRyQhGBmRGNNFTXZSgaHG1iUYkg5SQaHu6jo0Bmclk2VEsbB0ZaicLcahAMhWCGeUL+sre/VgYPRmoBJYtdQkqTLSSqUoFSUHamuK2dcKVzVsaDDaSIeCJjUyGIcMREhJgMoqC0xSXesmqgum+VRW5RNiyFEVQSJUODhdJXLbXRZYhbeF0CEXFlQAd5somU/hq8IePjEwekB7owIzoFAuQ4UkIxZEk4EKEqYlNd7U6M62WbJhzChruDVEsCqXzLR0TMKA5ARxd2NsJExT0Gt4eFWajhJEKag6TiBDlMNMpoKxqoGrDsbCrikEZWWhrhGmvqo3jgVGO1EvYMHu9O7mA1XHRziHBNcOSazcKg7Wi6il5XSjpRkMO5iTKaE063QqiRUGojEphmquXVUV6iKpVJTqc9xSWR0WAHNlGXRud0ccqIt1OiHcd6gC0Sp2x3Z2nmLIV6Tcf+9/weq3CCyrzFLhcYaAqHZJ61gQ6oFpsfVkdGk6LmjhLB07EqIKNo5ZRGMSRkwYKWiFQ6FAMqspGHZaHSrmS2BFXWBMOkfDurEqFIXGtmOc5IyCJrWFfOBrPrnFPcHsd9cndLPkCyAbyirEYs4JGJAGmhayZt1kr/pwoCgzKi8NZghhkmm4O4NQUQqgUUFWwhCQEGQqWGoX1SFJH7RypYBRdi4KAFhc5ZiELhAglcpWlaO75dO+pb6aHiX9d8aMhoU4wbBSrc6I2cnJM8TWdSWp3M3mduvUNE1LjASMTyCyNY5AdhAwwxYboERNwsiKkHSdhdox1boKpt1dbEZlQ6uws2QyrMipZO7a+RbWtevMrJwDwwkKFz3xjY1OfSXCYtNkV2fhE6zO6rnqUbazFAOVwixhWkfEQrlUwmVhJmNibuFdrp1YWo6EUlaTC4YFDi7Jueh4tAqUDTsl5LYrV8LxLRgIglxzcMukYsh9TAROTj5Uiov3RAkLoSoBI2i7Q5VtxerEvgolMVGrKK3+6wJ2//3YakyN30y2Xc6DfQGUZCbE1HOHOX3fp1q36KzZQns0N4UpXDtS2TSSsGKPY2QEQgYkNKviDpwupi5Bvo3IEvpiQMkAgRVCjCCBoATFJJzoyKgXoSupYojTCUXlBUgMNQ3i691XoKHKdo+/T7d2zF9pcs3Abt1ODNYS036wVipPNTazNTmEFkSJmbSbpMWTZHNgy0VsbCxvnC4EAnRkSQjJNYKISCorqGRgzhFfNCWdjM5NSBYQsExXRCHZQZUerAEVDSNKIYVICqtSbFnFGpK9Owxdqbn6WrUfHvKlNAhTCYFsaX9g+eTTm5xg2XJlmVhP1Z2XZE7MGDUmqQpqDNrKPlsK242NUXtpOTOiMcHmyE4mjoQgEAUS5JbDOAACbJTmYg9QQjBSqkSEVbqwVOOuXBerTsKDhpGBBFO5UZByiySopCKCJtW009KyvowG6BAoGFSpVv/C0qX3+rNtqUwxZO+ynqvqVsvAqTskM7LLLFz95FV12DJSxGQMElCMgsEULDAakSO/unue6c1mA3a2QrkoF1VF/crdfTsdDx0DAhXUhjVCmzIz2RLvf+T8vi/80okvNT+IugOJkpehbqpAn6iZuQ4KkyKHT98z0vvpZX0+Ax1m2ZNtZwqlLGnH5PqB5eN37qBvwDSJzXuzFzLFso5kUqYSZg/aYQrl/dyisR1sLjUjKc0KnCO8Ip3zznzVo3ecbwcnvN6Ug5Uu0wFzKHMBoNxnOhd6Y7S8CzmtUfK3vf9m8K7P/eKNodPT5BQS7puJWsLQSTkySC6IEOVE1pznSqUNR2AAhFEMQJh8i7fMEoICUFcQbj95J5h+73kNZMvZ31rukrUoUJphDZsuYAOYLfbcW/tv/axexwu71pKh3S5rhS4NqYtdbTGj1nrR40/e+hCby/aHc26pcBjh0qVPfAT3uM93fvvgMgpp+4nnPvILOtiZfSan8rqNp/eWN1bKtRkGBEBnhZzkCna1g2YqgOPlbtSnf/we9/37+fH9DQElkYKGiBKBAjAkwyPJYQKMAVAAIGTSaWbDK7AtwtpSfv9irAIxFWNGYM1YDxgRqxrwnimSDhmXQ5tZ1uQ+QYTqNVFPbeFNy5NPffT9yuXu5r9//qDP7KJzP7hzf5jRw+d718M9fP7r8x/v5wfV+8obgzTNA9NTypKlFQpB4dG+NbW1s1g1ySoBAd4qHaYYCgg1MBUolscAAAhAgI0ZC4P/e0ok7/LNd4Lty+9tNGA7k0oFNlCYRDTikJSgppgt73rvmbm1l8pt6S6jwUUyLyFoMit3RGhzjT0zYn33Q8cvfP/9O79/RuvSz8PNfb6v983XR9f6V/fzr66//+P96a/vn/3yc9RNy7mDDDDkaWdtXijRaOGJQZYAmcVATV0QY1QU0bGhCQAiytUud0yALxtDGgxsb5mzXYsFxmnesXziRmWXQyadSJcVJAmiDqdHP2s87ozoTtFSOBkZDwZjx6sckIL0mdFi1Mef/W77bsZ7ZtY2N6mSjrdTrf26tbb0hOwj3PbJWS+223p40FHnuupttWtNpiO1pqkZOLq0Gq7bhz/3c/PjIbc9CDObI7MFBTE2umhZZ8GpzmxuLQJftghg/fPPPkOFNd58dZPcAxmC6rIG7EClThIgh+n7+Pwxk/vevru3a2FpnDEZNZEj5FkoYl5hxceqtBbWfroqQgmVZIwK1io51UaSUNYirUaz/mlToaQUlZNGigxGoT70gJwShFBc62e6mnGp1r3ynHLsOoNCDZkajmYxfVOcAPgFXzYCKmvzMwuyxh37TeXa3+7qcOUTAayMAsEAmMkk6a8+6nr+3oubRQy2O0pxwXJwTCfaKGs6MSNtOYyWR5eh4nZjS9IN2vG6EUm6JYVkIGohQ2C1aG10Zc60mFS4adROpuPhz7l+8PM/5Y1Hapv5SJXt02LPhaauiup4n+kyfT0JvD/RFynQdhIL1jUlWAP6sXzQAXjNZVkwTAmSyZxMGbiOacdRflTPc7dKUoGzMtNC5UiWR9yKkV5SlLTIVw4VKfI1AfUStt2mKtNwFmulbnp00mEsKOPiIAG0ZR/LpVNjlIIcJEn0Vz831o37GdhzP7MNGbBOJCvrlHeZgwQ4UA72JaK0QAnMlwLrbGzYGsfXKrcJG1GKuAtnsw8nWwA5kXbYR/vuoeOR5NzYJmLeSlsl2xKtYy97gOXKbZiTAFfIlDlK4zhbacM4oLy0mKvk4+1i0QF50jal5bCcwMttoBTkKZmlFZrtnuf2xUGhPJciAyjw2liRcFJ2B7bSMTxfQNWfvBrA/KtBMBdW+d7IMfsAY8ckYwKJNZMes/VIoCimHC+9PrwvnyeORJYXiY2dAmlVXFFQ2uCCX3NAmx0p9mTNHuNILDWnsigYL9rZxnIuhDlZtG1J0YER+tYkQ1IQfWcIAe1WXvu+z73x4UuGiT4PCyxwdbJG1RgFUYZKAmS4vkC1FdqB/b8DzPua9/yEsfqKVFAdFGKHCRMzIzkhAhRCP8fcsf/ArxFHNWkNyJBkMjnGUiyNTwCVjEDIjIypQxiCit8SdK2HEgNwhUNylYy8pkErRVwWhS0JB7K1pXJ+ePx2/yIeZnQCx7d2IDEnmgExCh1ZLiZg9sneZ1PFB5CB/ZP8eM4eJ1efdcYb9LVLDUOXrrqoc1wnjBEdKgSxj8v9v+9en3/53ZdymQErCnuiSGmRwzEo0emQskGl16tU6UkdfSeEkkiwpdSR5Z5sEiEDdJEJIJd/2bfLwxe89yWffv2nv/n773zssuOb//rr2385PN5BGu6qeyh3KauFMWjWrtVhyjxj1as+lyDrpSPAwRNPrYywh3WFsTIrkcmQxgUnACmW0JlgHWN1HnfWz97f/PAP95t//l8ef/hr9dbL23bD7ZbIoVPsArS1T5lLiivrch/rUpLzciEEoVWsauuzWnYlxJjawjru2R4KXM/U7un0waOPTH/ud//x3/74/ds/fP9z2+1+f/omqnO4VUAishqakGoXQiYk4TNppH8lgIcnnhqVvYBikrWLNYCckExqrAOVLpY4w+hq9LhwHz8+un/9F//6D/u1Nzt74f79NH2jnNv9dVflNjnX+bBSg2IrWRPb6VCzobZkFS15Z7nWZPGmYomEeN97l8a793nN85gnNA85Vu9Y/+B3f/1n+w+b34vuWyiUmlwNQQGCZkjANYGJpMFnRldPvhu4eOqpjdhTzlZXIndd8UwwqmPZujJkzHIN1IU5LfIt97mrve/+w3/kXuy/2fm8x5q34qS3jTfxV6yxnQWLONgF4Ui7S6OxQVaiBtJjl+PRI+rxsu+f3NSm2evR6bW93sWLUCttfYlPCzHGXRVW8yQOiAxVp4JYu3K5efpFPg+r2nrqFfgYhLWXNwRYVyrJnGApNJYrWya1hSZpBDtS09iZFDM/sNbrUhvz90cv0t8nhyfkzTgMFFtaa4WKK7TDzGDf1XZurL3Cvrh9Zp1HTU5lzrl1Gx3XdnPUV92NWIaYVSR8t1ffUaQrZFEwXAGqUwrNFYWcdseqYwc27LPwFAV8PPWcaME8cf74u//fYkXi5iIJWM1hGDrVuTBW15jVBZPdJ5ZSbD44wCRnXGaytKtSp1zJihQkUQhMo+kb6aAmnK8pt3a/ifhoslJuBLqDERqgnBiVUETPWe+7ABJW2aIVlnWBMLiqY0oHde61wmnW59BFbnRK4OTJZ6nMEZcp/Wqm+xkLEgFLKpg2M6VSOczDgFKK7e1QBd7KZc5hBAkUpSWlVDKbDYXrTQtAoGlKWnGaGu4DRZSFWiYoqbNEC6ABgCILRIEsw0JrI8Vy9mJOJQUejG33SBWTQnJJ27rYZ5B3Lgp4efblwHyOf3mGfwKO7/tVXECtMVNznShkZoxjiWFD1OPcXSwEIydEMSNQSDSgckQQNSARtSKpQVC5gwAKqmZVOCaLAYABgKIRIkFEYaD7aGMSusKKsCDpxNACkkilhqOJc1cL/v81unYg8PLk0/vq42uOuLy5LkBJ3fJ+WLtjRsEuMNAZ5rDRDV1qkEExKVRJ3RhKCCQhkRQEACfSsuQoBFodBAFgQEdTi0BgDamMIgowEigliAxI1oahdE0xdyUKilCoskQ3GoIjd0hfPuj/b8uFwM2TT02QtaS5SFAYiQMTA2xYAHJIheWBTDVQPSy23WxzMssjtbNbJp3czaZioJJhnwljMXOxBCbNeSxwVaQzmtpXUmHjpADyLYEuUMPyAGDXcGeiMJV0E5QmoCDJkp0HgL2+F/DzY1evYm17+LJUEvChpgmlDkQTkiz0VovG3hVGExiu4EODBWaVhHbY3dikeutJ11BamVSYGd4V+5BNXxZ0DTB2M7uo89Z2KbKPOZulxtSdcIAla6mYVMc6vQolNeTEadJqyVJcsW5cn2rLDYGjN76QZAw9FFNZALpeYsUEBO0yQGsoHArEIkmGwpqE5URcMRLKgcoWqDDzLLbULJmkdmXmIvsar04bXFRtOs0ZlVM+F+ekgjG0E4IAAHCw1jgaI0kt145BBgC1XlvvLrnn47qwV3dc8LSMsLaQck9sNADrvzhfrS8XWUk3ORIHMjpgJUDo4NbYhzbAYOSszWOsIBBmPLMKRcsKDbAoLKjjrVCmmpbZbh5DZWGsojKWWzDVGJvFyAXualWqK3HRMFJ2rTRqVeS95ePhv74rveV6UthyEfC0308t2E7aFpIDAJZ/R/T/x37epLWRS1EnhmLPSg5bSOjypEAereWaKUkUa2WmFHbynLPOBR0rQDkLaz1YUyADgwpEmV6P553R6TpuhoV15QDQqo6ImEYmIknb8/tJONWJl+cn2xcv/nkBXKfY6/sCV2//KMkYHIwUAKj/YzZ+G6vweEdRc+gcMWi4WyeSmKF2VFPkjKjMaKyZVc3xlUha10OYoATb3YnjykX8SuvuUW7bjbm48rRMXps3HI9Pyq2ihaVOe14Ni+yi3d2j3cK6D9vORgdisLZdvrX82usYiMLqP9eXD09OMbY/PBwBALB87s+99dV3nZ4+pbhG3gJvg+52trM+Uedkd5eyYjI7GpPDsqUbs4frCvHoM/sipWWXa54WxkrKYdu8WlN33naFJqKSLC37tOeOPLYFuTDCs3zaud67q09Un5R04J4Z6wY5vJnQf2z98yfe/uMfAfjfJZQm1wl8vfz2gvFdUeAuRIDn/rTdv382q6O6XuX6Azutt6/3zyfaItJuu/Neu/FYD1kl4GXNkYzlLr5wPqpMO9+de8g9vvHJlUVL6eKxlnNYqE+6vk3qHh+7y9w15OqbaAjlfW9pV7L1/Fzeu3cz9yOrlWb76PfD165u3n/vy37W6b/zv2pptvIY8PXye/vGPzOmOhgSd4FKqfmb5M1xt/Wk/+2d7XcTnStVQCNBBUKefLilMN4ojEhC6grVNBfSpLyCVGBTSSAKVq2WR45MHCaHp208FXVsJ/sc1idMpEMxKfey2bEldVgCDTtAMUWh+4QuBHY4cCK3Qi/qaV2/LHz97NmvH/hc2wEjbFA4gqY2Bs5e+WikYEzpoqwDKrhhT2enODFuVyce/Tpygkog0yibF0MYIAwWEBDqLAUAACyCoTMG/o+EAQxQNgsIQxggEEBAQGL5LAkEEIyoArA0mO2M/29qL/ns7jmdDwHWx1J2597A2/NvhrEmgg1V2EFYyc6XrY7p5lgEGD1xhRjdlS8LoW2W70FgAQAAANRR3TW15+UtZl0CsH60WMnA3VefgNNYljezcwh5AQAYLZcnD9aPALAK8ACDtDNT2wJ/b3wpyZgoIqa9XoSF7FlrTF/b4PstPQL6AMjnzUsCh2M/xVjQa2WB9u6A8gMAYC2fr57U9xT1lYYC/V8i4pg/FHgsgPXXs5Vca0INmDRagm1ZP+npy6Q2wwK6XhVnf52/waZ0WcfyIWoL6iCYAACK6PFlZX/zGN+CSrIAIJI4Tgx//tg/3+/S5bdFmavy1UOHfeVq97lLV5y1ox2kgN3kRsxH+5C3Jv+JZz8BGHbieg4tfUGxJnk+e7U3EvBaHvz/jZPfFCtHK7axdph9IMQAAmSH98qfVx8Exovu8emrvZ0AsLjFdh79z7VTtxXF1LBJ2unlM7hz5f2MJecnr/LeysmzjwOA+U10//IfBv/VRgL5AAEg50zv/638mrH3ntNnr/YWAtw9v/5eOk4LQhR4qYbcQyfky5X3XH6HKXF86nGAABvuOm+ag5gJXoAKXjyOK8tfb5GzpG61TAIMe+n4GkMq8FOAR8/Jk1cfGayh4NLrR4Dhd112L6EhGOAIqFFz/NBPO3Lz6wW7sW5VMYJRLx1A1FCSJxCCfezCdSOVd36hMoN96c+NgpFXX4rQUMIVgL17lNp50YZrn0mYuXdctYUGJ5dt36Nva0YzZ9ScuxGZEyGkoRQr/zUFGTR7ftu3YJtQnAHYuv5oJx92HDFg9B4QNL3nnrc1EWLcget/WTUudLOwRt4MWGj+3DZvbcDjxbVHggd9CTal7E+m+T+02P9IaNV3GanAoY4TOlNz4BSSbLz993tAq515ybiZcD1KhUPQd8TB1v5krzcF1oLqd9ZeaLn+Jam2phECHkEXmJiOucEfEhbecc9A62UPaZlgKGwZVB5BT4M/uvVh1sRC/tg/2GQhw/Q/kqxpGFUAfO6gZamdMVV+tVO48JYcQLP6r+cwEMD6BCrtmF+ULZzZle6pZveiA3mKivVWGEIEXg9AN17LlCo77XbhrSBXTdV/PYYA5BVUUhaXZOj2z5TMkn3bHXYvOpCvJBM7nhthu0HlFQxIw119Zuys9Z3YvLC/twHIWppW7jg2UFVg3YISrJ0lNMkK+1WTB3KfPfIiWge2pEV+AcT+zj2YlVVpKqu/2Hshe1LLF96u11WFZwVq9m7ByEoEGaeAjj1QfnDlFGidKnSDZ6DmiSvGyBWbUZDy5FbA4o7TzB97BABA2JG4BnBs37VxJ2QkHHsAGC1SAQBVNyi+CU9dOyaupiObQKj15FaB1fvad209+xUFAMEW8g3gY3tkIMbU5WYTKn3h2cDutqNeLo07CkA1HRTn4PHL5NfLZ00uok8/FpEh2H71q6RxB8B8gryTWvWUslsOa2QSXGIb2F7Y6aSmJKjOCc5BiP20K7M+dcgjuRkMb+oyBssPHhJq9bmAdxCoB0hFXnfypkIWwQGhAszPbXFCpdOZe5CgXC1k1bNle3NIbgQtgYO3Hjqk5iprEryDQprLag1N5fD+ixZ8lFGlP1u2/gkqkGoZLVtse+iZfUoFJ0BGK2bZW7gHqmQHUzZ15LMaNNVeiWbgZtFy8qvxD6BEu0JdNjfBtlXq4U19359X4Gho2TLvivyDgQa/b39QLrFMk5ZqZ39g4whwVXX27TvGAHSIQzoTNpM1Cy2f/icROPvhDQ81YwCEj7+7TFbQpJ2Da0UE7j71uOmFGwOg5kPbyCMJ28rJf8KCw9Jq9T1jAODj750salrZt2KxE7hcTbK4QeNAeO+G5RAjTbVw7jngtdS6/mSCf6Dm4+8tA81hm8P+9pr/cwteOYOmUeMfdOebOEV7/aQ5DW/f/IPg+OMXTHe26eIfrH249WCtkYPG/3B54Prtz5qZp4HxDzq9JNdW6aI09c6nAudn5nTfETO7SCL3oPcNpaUANKvmT1Zb8H9xUSsfbWncg85MtdRwtFoeZ59rDMCN15ucdyPuVYi00IrSSBG02H0rgrG4Yy3P3diODbc0zsFAvW+lTm00GtXvnzceBeNybmGr3yemNL4BhAn1fteC0sC4ONJ9mwTjM9T6nDc+9gW/faSaXsfFN4h9tKM5bAOuI5OD8RqHOrjHYgtcg1CXhjU2epLmJBbG7qtnOXVja59tlBrHCqTu4B6awo4SkPDUTmAcx8Eu/bWPbrdhWM/hFgCcvKGGVCMkwdHbF8b09Rc6c3enLzthYNwqgEN7biNk2OFEdM+ndgrGuHZ74WjnH2nwqahoXIJotNvrl0wTqZzhFLIPXgXGez2lI3t15anqH0p5VGocggDRfQdvA+SFYYVYzCfsDzaBvV+6/O9eOBJdZSQRkTeQJIUXjz9GI6cM9S9HL2wOB390/ylnUuxWSRIiZ0CAR8/ckYYOsThSYZMAuy57+MMvf/jhi87OjKRVVVQmBF8ADu5PNUovGSIIBWBzmQoX33DtmT19w9n/VUVUQuVGOE4YgWyjBHnjSLD5XPthl9/aE1e5+c7e+VTZBQM5AdGB/WeEmg0K9fsramDTmkYsv7c3XnP23nPlK73PFwmJKGuAPTv5/OgehorCrlMbzerhYFOr3fp/uPrs3vrAxSd25dutf0iAhCphCQCevGKGIcDd2OdvPjSDzW9s1/vF9RfP25+6+OT2f2/th5X+AJKiMbSw9qHdhkisc2j96nawmdZugz63P7X2gytP7+p3lt83+J/6py0MVgUJlaLKSs3Nf5ydSTaKRlMAcPIvUhFswvt96j53vtT72bWXrP2k/8ve+XrSgMFvld1RYVWQgCQsUQ5Q8SX5HRttD1U5OnKnZPtWjxy8Bez/ru63+kNx2KS6NUWlsqpCCuQhJTUUSFJRoFNUIgKFgQJQGMj/JoFAoKSs+rL8jo0Arog74oQMbuEtZvoEQXKUm2QuI5KJgeS2onqkgnYNuupSjOKI51EVFOjFC7SMrJN6oLnwlloTFuyX5wKdFsRMczNJlXpr9f/0AgA=;" parent="1" vertex="1">
          <mxGeometry x="488.2" width="151.52" height="160" as="geometry" />
        </mxCell>
        <mxCell id="7ioG4twt27iG43bkYWm2-18" style="edgeStyle=orthogonalEdgeStyle;rounded=0;orthogonalLoop=1;jettySize=auto;html=1;entryX=0.5;entryY=0;entryDx=0;entryDy=0;" parent="1" source="7ioG4twt27iG43bkYWm2-16" target="7ioG4twt27iG43bkYWm2-6" edge="1">
          <mxGeometry relative="1" as="geometry" />
        </mxCell>
        <mxCell id="7ioG4twt27iG43bkYWm2-16" value="" style="shape=image;verticalLabelPosition=bottom;labelBackgroundColor=default;verticalAlign=top;aspect=fixed;imageAspect=0;image=data:image/webp,UklGRkxEAABXRUJQVlA4TD9EAAAv+cBBAE04jGS1buZ9LCwT91+wATsdRPR/AjIT/9zb9oDvlC+A84UqT2xP1HkAmJ0mHtmVZh6A9kNvPDOgdx7QtmqMbDf8RkKbgFnfUiOB13kAWBHBaaXHGZLXWsf1TsUVewNrR+QbCQAySMZea6PTjHduAsjMRpUaJnntfVxHpUrdRTJiHRGFGpIs4pE440gA6tSd67yAvfcmoI7PYsVCAoiD0AfkjTpAfQIgCyC/0M8AG9hdDUn2BK/0tCfw7FfI5AAeqbUncKepPYErzW1P/IUAXKwAk6kP2vsGTPzhmVxIUrY9kpCHJhS9dNZDeWxXrlyJy3KeNRSh+SniWH/SfQRJrm23jXQqdazwQHBQubiAHvf+V9FjgZ1z5XIgCLmOZLu2UrijEyIif/UiIk+M+P9P8NA62nre+/e4uur/BNg4i2ix/ft5xP02bh2CMRgAKsV2MYphjGIU4wYhI6AYAcbFKEYxrgiCEIBiVNsjwMhY3DZzIQgIAIxhNAG2bMZE6DwDEqzGaX6aQCVWDUIhAkIJjHEvywS8OrYq2QkCTKBTmPDmlKwCYGaGY5kNUPw2tkccwnNWIdRFSdcIxfLE8sSScQxIoRAltHs2sbLygN/HAoFvVLyCgPUdKOv2MV61CnYBToXN5dpe7Q2AOzbId42+jFYRuAZa0c6ndjn11dzO56gAubzqshqriOAQsJv8mDxO3dRN8eYxIDIarLY/zO1nn4Y21tvdF8u2d1Mn+H079+cZqDQAp4+zsCClVVoAEMCpOJ7icA4zNhMgkFIoeyeirNFOpzBXcAySUKavTksZwOPtdNquJ6Th9kBBkOw/oolWtDxEI67XbX8NqNdccsol11VI31npDQTQDm27m+3VZnu32V6t27s1OgDM2EWuRxmpAIf6R9vuuq42vXENgltU6oSh/hv5yw/Fu3unnHLIIbu80YFT2rXVvVk1KiO9wfOW/K7gh0WzNpo74IF9q/1lLk2Y1H9mb3QvHtzeAj+ElJ7aXRKN9JVeUm/f1tvnuJPupBEgnVOJgSW3HV4dtt3mFqCkVjXC+TS1gb4CAH3oA8c7aQZYUmZ5DcCXViFXU5cZSRKHN14DaH+iAc75eSpNQFrSgcCu/h2zS7qcJo3QK6UDnZZw5ZK/p/JX/T6A2jkB76x8ye3WNUCvlJ9KSiX12l5b6hflkrSWhHdWPMXNFfJJead8PecbGI7bNpIkyfln3Vd5FvuPiAkAJLSFdPbWvmntn3sQnCFeDqkm6WTr5afcec/jQGq0mEpUlKHVlfeoLq5MxsswLCwJdW8ygxe/aw1rl7bkhxVSSBA80bakSJJtbUvUzNyDIZmhmPkyM/Ph3oUWMzNzi5vMzHx7hyGhGG4lM0VGZkaEu5uqNDLC3UxFPOpSwwK2bcfeSOfz/q7bmclkbNu2bdu2bVsd2/YaY9u2md1G/5/v/16/1rYd23bb1raf9/P/1bYzI7K1ALXUrGa1pjWtoa3wX5Wq0LZt235xnzEBmmvbdm1pi8Zc+7744kdrLavCAg2GUMQHSjRK0gZsAAcoag/ImtZaZ7y71xypMyIuBniybVu2bbuNahv7ufCyAAR9hJAM5AbJQAgpQWaQEJ/8ztuza61tW9a2beljXffz/qWqciAKPGmSAwpLBig0lob7i7e9z7VnTIBlAYDUtpKquluyZFuWKWAIczLLzMzMzHijE8MXMN5498TMDMM8kzx+Yb/EiWNbtkVdXYtvjnu1I8m2a9tKjTHX3ufce7nvIy2tscAisGgAgYWPJVuAhYkLfSGw8HUftKX1k/eec/Zac/i1tm2ZJMm27vt5/9/MPNwzoLCZmbsl7gNgnbu1Ppo+hdJba42Zu+WWmBmCyez/npgABf6/3LVG1ycIgm4oQggTQLAgEt5aff4d318ZSwsARAAABCCIJRAACJCQ/j6/3jj6pgo6VGErU7HbsjmmsgnjykqaFRWasxb8H5AGvL6DI9GxOD7aMszquI3toFECJEaIgCCxBAIB0DEH1sSGnLDlJHj0cDZvDphpdmUzua42cbf+bfBuPdsr9mK32GeIT/3hJ3FomhmVkECRBEhA20fFQt6uOZgtsJv7mUuzL8xEHTZhB6+co62HDFBBrdXPDfFdXy5RDp+RRBISiSVoHvuwLqr0UU49rNiScEHYJJ06mNAHACBUDLGsFNJwFtYHgwW6ACD8a0qiBJ8Wsy96iIUQtPk5dDmVCABAkFZDwFxYzEJzCVauV6pJBZnGHOrYE31BOJy6B2Hzcvp4ahVYl2wY6BEiMjJzd0stqdByiqJnuS/5smhrmGZzcvDikAjWl3pDQRFNKI3kAgAQQn2h6sy+cCh6Z9gXFtiE7D73hI2LpuGgRIPUOLE+QRKpbhqZTwmP2LdFM5GwmTh/fKIhRq4BLXgCAITQWLIdnR6PviHp12we9l0eDClIs1GgDBNIdX35P3KkKozYw7ckTzETbQbOXRQaBqRqJNAooOX4A0CQipBtL/uO5Clmw9jbd8SJhaHD6BkNNPqTCo8ACFIRsh25TwnfyEQYb5ImVILhJTQAgW8sCR6tKzVS3Y9r90XR54fxFZq0CIYXEZoA+K0dv+8WQGis5nlP4fOSB6IxFUZHY2FURaJG4Luue4pfACBppeKRoiXGUdEUhoJRkUTQ8C/v/W3PgBBq+yfZX3jb+JHGFD1gZAEa/76rn0bkGMByOf8Z840/vuZtX/58ifHy5gniL8HoqDn45SCxngGAFuA/hqwyRu49E4IGxbbwn5RpUjG+AVzQPw3uhMaGUvQuZP7ZUZlJnXNapIVXki/47ie3s/FQtMSfgkaFNuCIuolzAKCF3dHLZeNAVMy0YPDp8FPzflPwDrTsdf3q8PnRLvfC2NI3BzSM2gH4kY+e7h5AqDqfeqyac6Gqu/BC00JbL6RfQRrhHmjpGV3HtU5PUtfpTGNq24LH8qM7LqHBPdCy96X9QEHxa/Ab1K8vNC2shdbgDSB1cg/gcAmRV9V0oAs0L0l7cF80G4UW/yAW3ohjKedT/afQ0jPQvCCjZACXKZSG8w9Cs5ssBI/KiQhdoA2pygE60YuNHQMAPzHrtUf3PzQCtBoamwWQ92mNA7If+u6Ocyl3Tu4vCVoVQmvzAGKOhDEAqjLszZy553qCqB0UajKBKnxSbgxA6thSv7lc4Yl2nD5MkgLtCmXP5gKavT+MAZhsmamdjki9lMOKoGWxxbjNBn4lv0VLYyCFqc7la9ND/Dh0KWgfhTHlAz+Y3kdGcA+EQ6P8tt97ceYkitKeMDGrjODXvVfwD7Y0m654m4f4sP+ckAjaR2FcOcE3x+vf1n21f5r1ioL+yJ89uHg5qhTIUDQ5m6wA/uzN3APVc9OmepsH2Nt9aEIQ5BgJY8rs1wAy7zT7pOkPVcdhb//ViyDLQZxhdJnBt45EJjgH07UCqr4zydjpA0aAPMsJqt5yg9/5RmjTGOc02z+2IgWVqTF1YDLIVZoVY2QHXxuDpMI3Ca9HIuhV98/m/vEKhk6fH8qmnKDqlR/8Y94yVstcgxoRQIoCETOHToaFbENLaGQAQuhHvonqIAIQ1HwGRoqW0AL5Vr2BSY26kWsSzikAACrVvxqVhaKJgSDjibmzAUoPz2BJdQoAQMCCkF9oVPSCnDs9jMBUMiXPlrie3QUqNdhEbhrSj0HWE/OyArCSOKbcjNYBEHoKyksUZljIWlROYudXOkPwC25HG4gV+2XOrGYWpFQjk1kxJjvws+fzK2iZkK0HKuEPHRmtvFNoNQDyDnRmYQh+4tBfCF6BgjYAgK+x2VAhdASZC+U4luAnL4rMKw0w9B+bTIpx4qf6QO4iqWcKfvQIBKdQDEPBO8lCatNZNhi7v3T2cfCrfJLYXhANBX/kyCBUdvASMChYA+HUbFwSxSAoQ8E73baGOqsGFqPMwS/sG8EjiAElDXdQqpbKaYKuLARSM3vw0xc9jsyjVUFiODjFGq3UfxSa9QCLQd1ZcwB++usIDsUAI+9A1UI5iVR0BSZFxVgewI97HJk/NaPBZQZqLA1XTasPGJlZngvw419G5o7GNgCLNBWaoBJY7c58+rBUgNQebxotrJo9NHP42luVyIrQnZkPsFDVjQkN/kE0qjNq4tQRsAoYDaonmFwwJ+BOt/mQRvKloBEonZFkRjt4USACM1XPltOsFzBNJanmShE1A7W5xR1GOXviihQwG8zUAltNxQ2omUC7PClpCKADdrj950xCBHaxE3MBR4U/zgiOnPbZDugRDxmGsOvkFYHliV6egIR3RWR+fGNYU7CK9qg/bHRx8l48OzBdTzIzL1cA/VFE8MIcrMYggJ7y0PV27R8Yr8ZvOTZfIPANIVT9HcG8BVpMEo74/V1XbkVVwtjM3HXGcwY06kS+/m4wx0wLEIg87eEAAIXA+EQPcFf44/df/zc/9mf3Z7FeqjEFA7Sq+gqPB7hyy4L5iZn4A/DbP/4PbvcXv/Gvn9/658/v/OXP7/7N//rxBT/5A/NevvTYeeBfxYbYQKyVAF9Y+GvfP9rTR4K5grl5eQR/9P7bz//7/d5f/c9f+7ffP/ofGLGh2Jnf/vvc7e596tj/2hSdrJAvBUlP7fuE/q+ZqyjH8eg/tvnOO2e9K44WmzQhaALwn7gqL7ff/8C/+Zf//l/+9v/k++v/ywLIWBnri8g3v/mp/2QBZPv/i7f77J/++vF/2oc/tw7EiqVlM1dE4PFDBxBgYz289IX3l7/8/82v/PEP/vzLX6MhFgBYgAEAYwE2o2IqSOyLAMlSAQyoGADCWMGCDABgKOe+P//85/3Xv05z62iYeyPBms+hDjZm8eNv/3PjS3/5zBd//cj81XzOz4fh4gUEAqHLWChgOITwEAAAYQgODwAYigEaIIyhwwBjKAYAEAaEsTEQaTGFLz7s60pAMbxx+D4gbP/KP/69//srDc3Sd/e4CxvaiYyJYo1DhNQBG//9a6/wm3/80ccvtF7eepeg9wdoanUYLFaUAEk9KGduoplJUoagsjeX4DFTEjkmMllsuRMftpSMevnelHRRGOoLUY7G7Md8VZCR1P0tL/aoaJ3b3Lpqw9Ob3qfEt3/lvWesfAXuFox1zNQq609okDoY8i8/+bUPfeBXtv/ynLQpR5hRlkf3mIHji5lPMiVvKgx1rJNrzGLIMRkcLOKMZ+dXc2ixZU1czZkttnRgOZl28VBdVwzlbn/7sj1eyuMTwYq31K4syqlZ03YlSyFXD/zrF+JF1ejzLuuFppfkzgtXoQ2G/OG3/uNzX/W+l09VbRY3BFLQWYfR1gw1eMEQFJmBR7oSEuLB4SYTy31C9jrWQYVq0hVcYS6skypZbGB1hH2mh9ti62+/JwLYbLsYMTNdkbWTXD3sUkggwfYq9yzj9hMGf7Rj8f+DRsWUEsZixYHDT2+ePR4Me/lT3f3+H75l/fKIT5RQugGgZNIdOamsc7rPnM4okVPOlAbpTrodytikDO1mz2Qx53Tm7LeUBMY7NiBZOfsaKglLAF+WW0oyxDgyKuDDi1vquYa1FFaaTE5dHnXZYvm3y9UHv/e8Z0FKzT8Pa6zqNb88Z8iqqQxz71fP+/U3Xj3y619YePWX0mPlUBwoMDDezYpGzVm5aPDgKjrYxjVhMtNFyHAoGhqycfG+0ykrk9qJgqR2HmLz6og1C5jrYorCbFke3w4OQ2G89eKhZrujBOX4JntBP18067Ottd+54y+3TPvPWHH4FIqx6YVMzc+XYpT6JzD0t/7xf//i7/5v+ji5DDtt5F3g9EQTUsAF04ZU1sByJdzkNAwQKCIACJSkSIEIKQMqDAIgAIJgBOAIVKBGSNKGCq8ZDKAcV7FgM2AhZNo5ddBMAGvlaiGimEbjcq59t/mX/36r757TX3h08wHj23ZeqXKF0JkFDP/hh98jybDLbMbJkKp5ECca2Zq5DraG1sURio0EpbwYicjUOCwxFQKkQACKANJCMAEQBAdERpRakS2fOcfAxK1BJKzpQZM6mMqsY2ikhhKZXS4N6DSvkqKBS3f4JrZn520z+WXGRDOLAU/J+l+DEffH37tv4dNu1+V5WskPgwzXabZ8eAuQc481SjLccgNOukqHgqVFGRkYhBSGE0CQGBhQgRQA0SAJGUEQQiLUuuzQutm5a2wJFVsFjDgqQjSMi607PjqMZ+ka800TKGxSGhGLfWbZ0chYZaYW5QlJZxYwKrucLFc0M5nMYikqQ7F69YhXLENrw9QYcCJAZ2MrIksAtAK5gsgGEpBAMQCyxQVLbDmAxZZARCrcz+lBZG1Yfp4vaBmwMmbqtqw2SsWZbBbAQHYpMZJKYEFiyvZijWHB0flFhYaKkUyLxhNrrVDSTOYgTlpaMjZGxmWADlMoplg5AqgkCeGIcWIFKEewiEiZAECEArpMxZJZIKEB4IbTKNTN7j1RgoxDi9qygHAcY5FMi1GBrV2G2aRPsGRJKtWWv5QSsC0a4Mjad6RhAIzMq0920W2Y3EeIqlCIToDJatmLCTTgyByKzIXjhDK3P/Jq10x3HV15QZwWJxRBaMvGamsrs8elwJps5AZGOhp2I8E5cOl6PPTNEhaQg3TNRnaFLlt3uIaHK7NRsiLZbP3KJJMiTVV/9MzyaWSs0tyq/JiYUTlaBYzOmaoZ6dx4JX4ctnHIuUeAcGJna/WkDlTOJOSz9EkfZz/52to+/UN+L72QY8g6VUbnqMuIlk7gMea0MJm4kM0sYc197G3m41R34jzqcu27ue5lsHk/G4BJwbB+PmwJagZOzG7OvpjeSF8UtXWWlikSQtb9vpAXjIumluBG/zehaQA0mLfd2rqxPGyGLaGlWL3cqa2A7Q/dH25/OI9klAtG9OsH/8R3/vJ588MP/8PtZRYvr8u1Tg5KHJ7prBlz0Z4cW2Vb3SZOyoMgyQoyO31xtyP0duXxrvTu+ic/ff7s1/vR3Te/3M/+8efbf7r/ov6weUtVTtxm71oFOgieD6vxxPoEU8vaFmJVKapDGNqUslaP392HnF50piYVHaBJ6a3xlIZb2hw/MC+OkZzc5kFR0uvxfQEApAYGpt3bddtHiS0C/63VQ3tZu1lJs215tnDo3xQ3vZvlo96N5tXCJX4v0Q2oF/LzMKuV4zrx5uXgbHB/vfx43PzBd/7TjN7Hwuuzuyc4YCNaFkJoAQKwV+D0hBaGEa/W3NGFVlpJ76ZK4NVnFq+cNicGf4I+0GiSLeVqHJdvNYzy7L3asV4z/WzPXL4dg1ykAjWWTe3+8c28+QEvlp98xMvJXxDvMv5E9Xn0E7V3li5U3lq+rtWno3Cj/NyxZ/AZ/7a868f8ujlrieM6dv2QnTe8XseuH63WezMTT6m9Stzc+P43X/3sy09/8f/SOdOZxe0UaSCJvdAxgeWZ6YZ5m47wqd8pwtjIwTzDjkh4MdGuwzfU+VBNpKUu0DCabYwZTA9neKwmM1vqWMMZtMjPBWBpJgzXnl4bjT5vgyUZtxM1lTY3VzWtapVWLXViLtNEF32UU787lWUOGnFkT7pTqX1cW06zl+2QLU9aw3xih8AphtITew+nTW6PndPM5LeM5kcS1ExgoBtnZnCHzsRqgdfjM5+DqQPrxYJmlgY+Pn0XARo2zfM+7yTAlwOWp0m8ROAESQzUdkDhtuKsN67HXnJ8JpdoOrUCsNm7CNxurthNIqOuEEu1UquAzQUpIHFysriOQ+vLEuxoCg4me0xZy4sRFuLRruzJWLMcwtXdhO0Rz6pFL0ey9CCyp17PXl5RpUKFsMYtHoQXK1X1cCEOdmzvSUDT1mUPd9hzvPnZfh7stdOxMjQPCXG9ZkODrpKOYM2DrueNi4c3CuBWca6HcASrkdgY9JhhMq904gJDpLUyb07AalaTnlJEFvvprMaGq73WgpoewzJL9KRQnV7rqdwc8xEcM51j/OCo/el+fO1hvfP59sn5qbUwcV5ek9ZmQhZxtj19xMCLB9VN4GExqu7U1EDjTMJbbJOK22/sZgkvPzfBEC09D5YtPlw8Ju2t5089Ht38uFW2SbE1NQyh1FhAcRykw8QmJgHZGdWtYxLXi2pgIzvHTi44tZ1CBqskViQGpR2s0I1yH7+JGVUmSZDNGevC42mp7n/6n99wxjOURSjXyWpGc3BJ2LKhXS/XnWM9SEVSVzug+Xh62icdaNubM82bN29stF5e+UH3oWJJG3MC9AO3p2qHpe5QjyNEnDRZs91ItM1VVSKODt2MaSI1jjSis2LZ1Mk7Kj0Tvicb92WZQDhkKtbHBF1xSuxlfqze2qs5sgDUu3v6u/t/fMY//hVusbh6eWCzRFzLHKJCYZWCvVgM+87IgVCtbBaAFklTThamiw8+YQMgw2TItKQdPN7N5Q8X9fGnV3/QrQZOc6sqLl0rZCIN8QcWlEypYie29IDJMShKEtzpjMYxEoodmIqo2YYJ6UUjPDyULrHFjjKOZTxdW6na6b3fm7P3JR/82o/p4eq///68nZ4XlsmjmCF2VOYjD0yQNCx48c6MZldcBx44jSC0gbkGp6m1dQIydOOQ16AS11jrvIV8bnzW8/nUu3AGbCfTBpBSoOOszYXuZWediwk46Z52f3RQXuGuPq7tg1D7ut7142wj5ZXJrGtX7m0XjbGXM+OqvzEMOXmkk4YiqzvXaq5jsz+6ez22f5pzMLk3pRPSXRmsNiM+rqYVJjFb5sXmVquahr1XTwYKtClkKVJy9mkSkzEaZtFTks/Os7czvR9Hl7s/eKa5XKx4dS1bixU7vk3GRlBxDGjl3MP97Pjse9fXl/mkKg1X1M5MWwfk7V1+eZgPd27/FeRtf72NuF+Yrx3aXp12WQli3tlmyhxFd9gaNcnxez1Xx8uwPoCXuirpIxLw9mJ6dYpNtZPOVbFeq9CB804w/9BZQIBWMxjW2ms/dUcKl2diDhQteXyPlj7NITqfHnTZ9997kqEkPemGY4koRULzUmTZHlsR6fP9jS9aX55//vvweJHkndahWtRY45HSKfP4xUYPAe3r7e54/w3/99D/e42PAbjaFKASEJR5VCKDJluriO4eU24iYWl134BhLtQEg5KqpZTzrIenwWuXqnqZe+M8BAXapWMUBh2XogswKDSf13dp3jO2bDD3+dbnCmuFe0+iLRF7qS+1x3HK4lCjkWu78SPfOn/6poX//Gl4/F+8iSlVMeUajGxFJLQagcig9+z2LLt/9jX51pfla2unz5rz+S8vzqQPnYkjvUHUNzo57/tn6ot1H2yp2kDafUc5NlSkS0Afi9LO/Dci7KUK6XQnWL/viFsIQMtMhSnU7Ofb1TZpmJ6IYpx8ZJLymPN8czK+OzzfVU2kVO2EcyVwMHhEpmm+b4O8aR6vHrp/R6S37El94xIDGyBAAbHhQnaAwWi0ZMY46Xxr+mWuns1zF2+P0542L8XWwNva7C17XD3ObheZoIQoYSvCcCwjoY9x0fApZRuqoZcqNb8Gcw9dBFo35frsdI9x9bQDIYUI5GYLA+fscp+PnyZJeDptd2RNX7awUbItiEq5RYrz6IxOsue4Ue3GV9aByCzUsEAWEDaQggKACatAWQGO2Lc0t3S+cOqhWZ/QjxrUful87KdqXJu+xOsdUFQk6Gh2ws1dWzG9CvLGNGzFXbXLZF6pZmFT1l47foT2RItHWul0znlyCAl+0Dwwohp563h9x114fhzfn7sOkqoYyFSKkZTkPQCZ+c7zffXdv6fX/2YfIAyFVGiAGgEgCAvWwQIQUkFYNRYoa7EO8sc47zrXfxn+8D8a13d/+uzjT3/qzUPe9PT5PyJqjBFksAyz01rLmrF1zXGcuJZdfUFDYL3SziN26xZr7JHLQYZ2+nYfUq3nCuBxNOrMaTqG4zad7ejMxx/C7WF4dyKFy7wjwyCwVBwAdnpl/fvp2BQCGyCwSEKW0EAKErKQADVCKARAEUAaaVQWbLhgYVruELfjl3+aOf6XctU6wAWKgAJZS8h0ZwwqTEag5RQABJkXGhY3AbZfOPyA9QUQQMOajQyI9J0aImFq+MDJg5NDxwKARhoBQHb3Xh09ZNt99i6ZlbvGap8k1ZdsL0/b83NIHe8z6XB9VN009MCXAnTiYZcVoZAmH7Rhbl5weqt4lkWzDIF0dlvpatC9DlvNW71rn37789/98f998h+p901VDg8Y8EJ3JpeZdYWHhht799Oe/c54vVBlwPZjFy+sG4C++txghb5dJcYOACzcjeDNDicTocOC7TIZlVYAoNlJXePJzUxjmTP2chdZQjEVkrjB3dMT78uQgNtdVi5SELa9Iua1qe2UaLEqgO0YQ2UigYQphWCPrWbtvgLSovpNd0Nns5zrhn1y+SnTMrYToTko9LVqG10fBPp4ZV6nkE5/2pJmYXQAIAgpZqm8XeYaa3ljhAWRAMNaoAFEwjQdttnJANvNvlvlJNg4LJKjEKG7hzB9Ye7ltS/v+XmjP24SR4Yjdzo3IMsUN5r7ZV9bpg9TQzVGtpSTJM2EzZwyaLtW9tZss9rgLqbfo9pjpbevXVm2fTJWuyEW0pTFxoJKuzAxPNKTgdetzOK6Y0qqpcEgIJwNx2Nv5tWYALT7/lNsFt4UlPiMmCmlognJd/ZqOcTy0EvHeTDOudoIJZbSvpQIStcWU4WGMgdzw4igFZZDRQGjrWebuDIHVoH7RO5MifO12oPtnqgYsek9HYfS5tnOJfGeLrauPSa+Fnqd7up76LosVROregO4EW5HS4AAbZPeo4CHsxnKSQ8AoQY+V7YIp49vHZCQqhSCARUYKFUpalAjJSALIDSihVl7yIOwYJYgLY1BZG18pB7agLgqhPRFXLNZMcXBMMIuWxeLdm1s3caGFRq8rGjnviQYKlvSL8XoSOyL4ZoNCJBhd/HX6dfejZ163tfDPsZEJwzZ95Rv+7qPDQM1b9msYYoKO/3acghSgxPjvqURgFVkQeiwGcySmgRUoSxjPAsqu6G+cyomqmuw59F1bUlghSSl3+yzi0DFE9YNw/pc3+7Cy3QcW7YI7ErSmc1SXtAYyPO/P/9yf/7n+6dv9LGfD2/wcNPpUacDAORy0hW6eWoyvH9yWOeVmlBm6To5JyTY4YrWzLg4Y9MoGNZw6glWGMxxmgEHD0UZiKKS6mOA9JHKy3QX3KWrpjEY20iHY0h1rNunVe++Xf4jH/znzvAqhWGmE+wqwpw770SQq9ntv7/vdN/epqY+OMcTPx/CSsdJWRNNOe0Ie/mnF4318R7MpQNyu3gQaiW0a8l9YtDNUOwCB1tCOYOE4EBOBQFagpxluC802C0VghUP3G6gLB1d3NwNRe2+d3Nvt//+nmaezkzP4/UqJdu2YyeEIx9cf2joL0ogG4qc+/VW+/Rt3/tv78/d9+6tv/7rb7/pd71OfOmOe2upIxrL/UrO972HEyvsTGohdogSwjlSammGRpV0AMCGiSRJqaQuthOaCMuqdZejxEo9J1gh1eFhZ+tefJ/f5/Me93azdfE8fQan3QxMPZ+pzCwKXrRntQBmSfbPnSJAvplBwxHPziCp0ah3k9h6WCoay+2b+5z+ePdvqubsxSlwRERNKskhaaS0MZtxUBsSo2ImamEky0wZVM7bM4/p5VY5hrHXfmB99dYnfu/4trZoO7F9YAXasWi6A2Zm06WxIx365Ma8ysWL6n3OTKo7/sG1CHKWxvcK0yelZoNWMoZZ1MxZagr61u09TgKn7PgkLcr2NC8NgeBjnxLRl/8P6/+Gvg5505ABmaykoLTwfFFjHdJFQ6phDOwC5aQWnsHJNEOo9n2cxfiMhOauZBv09nvkRYRX1gRWw+jds/hC5nksDEgUpljnQAjkUZTFyp5dSI539viw+3ge34ywMmwMN1cAFW6GJcdVkrFLBgEoIhHIlJBs243tkqGDtkWB9ewNq6wgh0XFAHOSYeXMpjFBYpBBcnSNLYPBa0bSV3Pp8qzMTF8xbit3z4zWayKSlVHMXAySGN2Aiaiu9HFVlWW4b+frjJUeaScThmQsFitXuyPVzkFoCCjl4FFwcnnTooApIC5bxFjQyCoGBTE+4qjQKAwsqpU3u5jlSmxMBe1e5dK16j8YWeu7s2yp/Q8yz+58i8+ITCmHGpvjTGgHYlyT6xL3qEw6zuE24JFNVUjbYySi5gyy20l60tpARWCVSa1GYWtEgpztqRkDOxRP08rKuh6lxXBSi1RrIrMdD1HHY63jOnZ3QoVZZVo13mvUtjNDYVRg9Pc3emXpHpC7eLpdHUKJDFJzBjiBzBw0gOmbEtsenPfOGJDptodEgBEQLBlFg6wDFFQgRr2YU1jHC0yY2VEn7zOWbifTI1m3JgoJE5Gx69gucQ6Iu27LjJDI5borqBBeY/mfVt4GRv/j5Of9aHodZE92h3tj133mrsk8mqBygiVeXQPE1PhUlgfO7viENZnQjtltjKMdr6Zn4xq7N9PRwAIBSAoAHOKkOm5zjfdp5ohEW7ItBAQ0R83WNarp2MZW1Gn3BVGXFolcsOolLDixBzC6ZY5C5QL5oxNN4Hw6b66hythyhRbOCcQNDST077fd2h4s46UaPGTk3ltElHRzflzReKsjL0RJIVpgpaYw14RKIZnK6ZpreGAy2HixYTaJU4EzCNcYREgN1dlYJ2IdmUTNRNYrDOzqx649yMjTu+iO3eBiIIPF3W2IWlHSMYgBH4lUig5z3Hcme6zxxcXomCS511keAlB3XrMtgopUybICtMUapdIhlyVjkk0d29WHJJBSOCE4QLRYlqFQHYeuoMGuGqi62KRrYBCwMi+QCsv/DGxqt3vWOpNbMGjWuXfU4m3nwMxJZYOKgzGhb65UKv3UpRvDoeeMHGHKbQeMRacv82ihUcQKI9kIaN45a5DLYxHoq08OAIScsWNYUrMC2Ikq004yOBJcZiJJbEKFnFTpwuDrD7p6C7ApFfuXVbgDLGbgIHIRAadvELJFWJHqrdspbpiaZtt+awdNepjdktSw9DAQWghgiQoi0CG2rFQZMtBVZxcp6VSZUX10KEUXpdUFmUIOQu5EoQGMxSIjg6lZBH19ibLd6WMZeXb3xIBJK6maiDm63BUSqLX6djUPO7Q2tk+tTlJVHblgNOlsWz5im1i5bUNMLSKnFDjtq6tQFTW17/ru5GHxMonSZsLttPFiCpR050AIqbnq7M69gbtEJDsrWZWpIWyBWF/fjj0Dm93xfdIxV2DUZUXVIBGpFHLNHd3MyAqZaqJlBudtb8+KHWUy5kHu3R4obDwnVsBViIA1ioC6qWgCSGQl7iwBxJ3KNa0OB5F5WA41mag6iJyIUjqubGOtQ4RiFsm4jRjma0s8vxAwevo5pTuthAideaZjQQwgxnvTWnsNWbmwvotqsnVjnyipYzcWmliSk4+dGgrAgpQlS+662SmLBaCuKCZfVMCWnYBlAxaDAlMYgCpYXnWzJRBRyR0uggKyKJQKX1lk687A6Dc8mxowmgHGwbKK3zlEVbuWXQzfzaeUZDhMiy1GBBISuQCJSlJDFiWkII1hlbASSIEFkQBjUUUxoRST0KJVEUAqQTlA10HpCIS6geU4IUBV1ir4ym9ed8T+rHzT+wJWwLX41gVDLMUKsUmwDNeySbwY6mz2od8egxOH5dHqmAdbWJmQRyQhGBmRGNNFTXZSgaHG1iUYkg5SQaHu6jo0Bmclk2VEsbB0ZaicLcahAMhWCGeUL+sre/VgYPRmoBJYtdQkqTLSSqUoFSUHamuK2dcKVzVsaDDaSIeCJjUyGIcMREhJgMoqC0xSXesmqgum+VRW5RNiyFEVQSJUODhdJXLbXRZYhbeF0CEXFlQAd5somU/hq8IePjEwekB7owIzoFAuQ4UkIxZEk4EKEqYlNd7U6M62WbJhzChruDVEsCqXzLR0TMKA5ARxd2NsJExT0Gt4eFWajhJEKag6TiBDlMNMpoKxqoGrDsbCrikEZWWhrhGmvqo3jgVGO1EvYMHu9O7mA1XHRziHBNcOSazcKg7Wi6il5XSjpRkMO5iTKaE063QqiRUGojEphmquXVUV6iKpVJTqc9xSWR0WAHNlGXRud0ccqIt1OiHcd6gC0Sp2x3Z2nmLIV6Tcf+9/weq3CCyrzFLhcYaAqHZJ61gQ6oFpsfVkdGk6LmjhLB07EqIKNo5ZRGMSRkwYKWiFQ6FAMqspGHZaHSrmS2BFXWBMOkfDurEqFIXGtmOc5IyCJrWFfOBrPrnFPcHsd9cndLPkCyAbyirEYs4JGJAGmhayZt1kr/pwoCgzKi8NZghhkmm4O4NQUQqgUUFWwhCQEGQqWGoX1SFJH7RypYBRdi4KAFhc5ZiELhAglcpWlaO75dO+pb6aHiX9d8aMhoU4wbBSrc6I2cnJM8TWdSWp3M3mduvUNE1LjASMTyCyNY5AdhAwwxYboERNwsiKkHSdhdox1boKpt1dbEZlQ6uws2QyrMipZO7a+RbWtevMrJwDwwkKFz3xjY1OfSXCYtNkV2fhE6zO6rnqUbazFAOVwixhWkfEQrlUwmVhJmNibuFdrp1YWo6EUlaTC4YFDi7Jueh4tAqUDTsl5LYrV8LxLRgIglxzcMukYsh9TAROTj5Uiov3RAkLoSoBI2i7Q5VtxerEvgolMVGrKK3+6wJ2//3YakyN30y2Xc6DfQGUZCbE1HOHOX3fp1q36KzZQns0N4UpXDtS2TSSsGKPY2QEQgYkNKviDpwupi5Bvo3IEvpiQMkAgRVCjCCBoATFJJzoyKgXoSupYojTCUXlBUgMNQ3i691XoKHKdo+/T7d2zF9pcs3Abt1ODNYS036wVipPNTazNTmEFkSJmbSbpMWTZHNgy0VsbCxvnC4EAnRkSQjJNYKISCorqGRgzhFfNCWdjM5NSBYQsExXRCHZQZUerAEVDSNKIYVICqtSbFnFGpK9Owxdqbn6WrUfHvKlNAhTCYFsaX9g+eTTm5xg2XJlmVhP1Z2XZE7MGDUmqQpqDNrKPlsK242NUXtpOTOiMcHmyE4mjoQgEAUS5JbDOAACbJTmYg9QQjBSqkSEVbqwVOOuXBerTsKDhpGBBFO5UZByiySopCKCJtW009KyvowG6BAoGFSpVv/C0qX3+rNtqUwxZO+ynqvqVsvAqTskM7LLLFz95FV12DJSxGQMElCMgsEULDAakSO/unue6c1mA3a2QrkoF1VF/crdfTsdDx0DAhXUhjVCmzIz2RLvf+T8vi/80okvNT+IugOJkpehbqpAn6iZuQ4KkyKHT98z0vvpZX0+Ax1m2ZNtZwqlLGnH5PqB5eN37qBvwDSJzXuzFzLFso5kUqYSZg/aYQrl/dyisR1sLjUjKc0KnCO8Ip3zznzVo3ecbwcnvN6Ug5Uu0wFzKHMBoNxnOhd6Y7S8CzmtUfK3vf9m8K7P/eKNodPT5BQS7puJWsLQSTkySC6IEOVE1pznSqUNR2AAhFEMQJh8i7fMEoICUFcQbj95J5h+73kNZMvZ31rukrUoUJphDZsuYAOYLfbcW/tv/axexwu71pKh3S5rhS4NqYtdbTGj1nrR40/e+hCby/aHc26pcBjh0qVPfAT3uM93fvvgMgpp+4nnPvILOtiZfSan8rqNp/eWN1bKtRkGBEBnhZzkCna1g2YqgOPlbtSnf/we9/37+fH9DQElkYKGiBKBAjAkwyPJYQKMAVAAIGTSaWbDK7AtwtpSfv9irAIxFWNGYM1YDxgRqxrwnimSDhmXQ5tZ1uQ+QYTqNVFPbeFNy5NPffT9yuXu5r9//qDP7KJzP7hzf5jRw+d718M9fP7r8x/v5wfV+8obgzTNA9NTypKlFQpB4dG+NbW1s1g1ySoBAd4qHaYYCgg1MBUolscAAAhAgI0ZC4P/e0ok7/LNd4Lty+9tNGA7k0oFNlCYRDTikJSgppgt73rvmbm1l8pt6S6jwUUyLyFoMit3RGhzjT0zYn33Q8cvfP/9O79/RuvSz8PNfb6v983XR9f6V/fzr66//+P96a/vn/3yc9RNy7mDDDDkaWdtXijRaOGJQZYAmcVATV0QY1QU0bGhCQAiytUud0yALxtDGgxsb5mzXYsFxmnesXziRmWXQyadSJcVJAmiDqdHP2s87ozoTtFSOBkZDwZjx6sckIL0mdFi1Mef/W77bsZ7ZtY2N6mSjrdTrf26tbb0hOwj3PbJWS+223p40FHnuupttWtNpiO1pqkZOLq0Gq7bhz/3c/PjIbc9CDObI7MFBTE2umhZZ8GpzmxuLQJftghg/fPPPkOFNd58dZPcAxmC6rIG7EClThIgh+n7+Pwxk/vevru3a2FpnDEZNZEj5FkoYl5hxceqtBbWfroqQgmVZIwK1io51UaSUNYirUaz/mlToaQUlZNGigxGoT70gJwShFBc62e6mnGp1r3ynHLsOoNCDZkajmYxfVOcAPgFXzYCKmvzMwuyxh37TeXa3+7qcOUTAayMAsEAmMkk6a8+6nr+3oubRQy2O0pxwXJwTCfaKGs6MSNtOYyWR5eh4nZjS9IN2vG6EUm6JYVkIGohQ2C1aG10Zc60mFS4adROpuPhz7l+8PM/5Y1Hapv5SJXt02LPhaauiup4n+kyfT0JvD/RFynQdhIL1jUlWAP6sXzQAXjNZVkwTAmSyZxMGbiOacdRflTPc7dKUoGzMtNC5UiWR9yKkV5SlLTIVw4VKfI1AfUStt2mKtNwFmulbnp00mEsKOPiIAG0ZR/LpVNjlIIcJEn0Vz831o37GdhzP7MNGbBOJCvrlHeZgwQ4UA72JaK0QAnMlwLrbGzYGsfXKrcJG1GKuAtnsw8nWwA5kXbYR/vuoeOR5NzYJmLeSlsl2xKtYy97gOXKbZiTAFfIlDlK4zhbacM4oLy0mKvk4+1i0QF50jal5bCcwMttoBTkKZmlFZrtnuf2xUGhPJciAyjw2liRcFJ2B7bSMTxfQNWfvBrA/KtBMBdW+d7IMfsAY8ckYwKJNZMes/VIoCimHC+9PrwvnyeORJYXiY2dAmlVXFFQ2uCCX3NAmx0p9mTNHuNILDWnsigYL9rZxnIuhDlZtG1J0YER+tYkQ1IQfWcIAe1WXvu+z73x4UuGiT4PCyxwdbJG1RgFUYZKAmS4vkC1FdqB/b8DzPua9/yEsfqKVFAdFGKHCRMzIzkhAhRCP8fcsf/ArxFHNWkNyJBkMjnGUiyNTwCVjEDIjIypQxiCit8SdK2HEgNwhUNylYy8pkErRVwWhS0JB7K1pXJ+ePx2/yIeZnQCx7d2IDEnmgExCh1ZLiZg9sneZ1PFB5CB/ZP8eM4eJ1efdcYb9LVLDUOXrrqoc1wnjBEdKgSxj8v9v+9en3/53ZdymQErCnuiSGmRwzEo0emQskGl16tU6UkdfSeEkkiwpdSR5Z5sEiEDdJEJIJd/2bfLwxe89yWffv2nv/n773zssuOb//rr2385PN5BGu6qeyh3KauFMWjWrtVhyjxj1as+lyDrpSPAwRNPrYywh3WFsTIrkcmQxgUnACmW0JlgHWN1HnfWz97f/PAP95t//l8ef/hr9dbL23bD7ZbIoVPsArS1T5lLiivrch/rUpLzciEEoVWsauuzWnYlxJjawjru2R4KXM/U7un0waOPTH/ud//x3/74/ds/fP9z2+1+f/omqnO4VUAishqakGoXQiYk4TNppH8lgIcnnhqVvYBikrWLNYCckExqrAOVLpY4w+hq9LhwHz8+un/9F//6D/u1Nzt74f79NH2jnNv9dVflNjnX+bBSg2IrWRPb6VCzobZkFS15Z7nWZPGmYomEeN97l8a793nN85gnNA85Vu9Y/+B3f/1n+w+b34vuWyiUmlwNQQGCZkjANYGJpMFnRldPvhu4eOqpjdhTzlZXIndd8UwwqmPZujJkzHIN1IU5LfIt97mrve/+w3/kXuy/2fm8x5q34qS3jTfxV6yxnQWLONgF4Ui7S6OxQVaiBtJjl+PRI+rxsu+f3NSm2evR6bW93sWLUCttfYlPCzHGXRVW8yQOiAxVp4JYu3K5efpFPg+r2nrqFfgYhLWXNwRYVyrJnGApNJYrWya1hSZpBDtS09iZFDM/sNbrUhvz90cv0t8nhyfkzTgMFFtaa4WKK7TDzGDf1XZurL3Cvrh9Zp1HTU5lzrl1Gx3XdnPUV92NWIaYVSR8t1ffUaQrZFEwXAGqUwrNFYWcdseqYwc27LPwFAV8PPWcaME8cf74u//fYkXi5iIJWM1hGDrVuTBW15jVBZPdJ5ZSbD44wCRnXGaytKtSp1zJihQkUQhMo+kb6aAmnK8pt3a/ifhoslJuBLqDERqgnBiVUETPWe+7ABJW2aIVlnWBMLiqY0oHde61wmnW59BFbnRK4OTJZ6nMEZcp/Wqm+xkLEgFLKpg2M6VSOczDgFKK7e1QBd7KZc5hBAkUpSWlVDKbDYXrTQtAoGlKWnGaGu4DRZSFWiYoqbNEC6ABgCILRIEsw0JrI8Vy9mJOJQUejG33SBWTQnJJ27rYZ5B3Lgp4efblwHyOf3mGfwKO7/tVXECtMVNznShkZoxjiWFD1OPcXSwEIydEMSNQSDSgckQQNSARtSKpQVC5gwAKqmZVOCaLAYABgKIRIkFEYaD7aGMSusKKsCDpxNACkkilhqOJc1cL/v81unYg8PLk0/vq42uOuLy5LkBJ3fJ+WLtjRsEuMNAZ5rDRDV1qkEExKVRJ3RhKCCQhkRQEACfSsuQoBFodBAFgQEdTi0BgDamMIgowEigliAxI1oahdE0xdyUKilCoskQ3GoIjd0hfPuj/b8uFwM2TT02QtaS5SFAYiQMTA2xYAHJIheWBTDVQPSy23WxzMssjtbNbJp3czaZioJJhnwljMXOxBCbNeSxwVaQzmtpXUmHjpADyLYEuUMPyAGDXcGeiMJV0E5QmoCDJkp0HgL2+F/DzY1evYm17+LJUEvChpgmlDkQTkiz0VovG3hVGExiu4EODBWaVhHbY3dikeutJ11BamVSYGd4V+5BNXxZ0DTB2M7uo89Z2KbKPOZulxtSdcIAla6mYVMc6vQolNeTEadJqyVJcsW5cn2rLDYGjN76QZAw9FFNZALpeYsUEBO0yQGsoHArEIkmGwpqE5URcMRLKgcoWqDDzLLbULJmkdmXmIvsar04bXFRtOs0ZlVM+F+ekgjG0E4IAAHCw1jgaI0kt145BBgC1XlvvLrnn47qwV3dc8LSMsLaQck9sNADrvzhfrS8XWUk3ORIHMjpgJUDo4NbYhzbAYOSszWOsIBBmPLMKRcsKDbAoLKjjrVCmmpbZbh5DZWGsojKWWzDVGJvFyAXualWqK3HRMFJ2rTRqVeS95ePhv74rveV6UthyEfC0308t2E7aFpIDAJZ/R/T/x37epLWRS1EnhmLPSg5bSOjypEAereWaKUkUa2WmFHbynLPOBR0rQDkLaz1YUyADgwpEmV6P553R6TpuhoV15QDQqo6ImEYmIknb8/tJONWJl+cn2xcv/nkBXKfY6/sCV2//KMkYHIwUAKj/YzZ+G6vweEdRc+gcMWi4WyeSmKF2VFPkjKjMaKyZVc3xlUha10OYoATb3YnjykX8SuvuUW7bjbm48rRMXps3HI9Pyq2ihaVOe14Ni+yi3d2j3cK6D9vORgdisLZdvrX82usYiMLqP9eXD09OMbY/PBwBALB87s+99dV3nZ4+pbhG3gJvg+52trM+Uedkd5eyYjI7GpPDsqUbs4frCvHoM/sipWWXa54WxkrKYdu8WlN33naFJqKSLC37tOeOPLYFuTDCs3zaud67q09Un5R04J4Z6wY5vJnQf2z98yfe/uMfAfjfJZQm1wl8vfz2gvFdUeAuRIDn/rTdv382q6O6XuX6Azutt6/3zyfaItJuu/Neu/FYD1kl4GXNkYzlLr5wPqpMO9+de8g9vvHJlUVL6eKxlnNYqE+6vk3qHh+7y9w15OqbaAjlfW9pV7L1/Fzeu3cz9yOrlWb76PfD165u3n/vy37W6b/zv2pptvIY8PXye/vGPzOmOhgSd4FKqfmb5M1xt/Wk/+2d7XcTnStVQCNBBUKefLilMN4ojEhC6grVNBfSpLyCVGBTSSAKVq2WR45MHCaHp208FXVsJ/sc1idMpEMxKfey2bEldVgCDTtAMUWh+4QuBHY4cCK3Qi/qaV2/LHz97NmvH/hc2wEjbFA4gqY2Bs5e+WikYEzpoqwDKrhhT2enODFuVyce/Tpygkog0yibF0MYIAwWEBDqLAUAACyCoTMG/o+EAQxQNgsIQxggEEBAQGL5LAkEEIyoArA0mO2M/29qL/ns7jmdDwHWx1J2597A2/NvhrEmgg1V2EFYyc6XrY7p5lgEGD1xhRjdlS8LoW2W70FgAQAAANRR3TW15+UtZl0CsH60WMnA3VefgNNYljezcwh5AQAYLZcnD9aPALAK8ACDtDNT2wJ/b3wpyZgoIqa9XoSF7FlrTF/b4PstPQL6AMjnzUsCh2M/xVjQa2WB9u6A8gMAYC2fr57U9xT1lYYC/V8i4pg/FHgsgPXXs5Vca0INmDRagm1ZP+npy6Q2wwK6XhVnf52/waZ0WcfyIWoL6iCYAACK6PFlZX/zGN+CSrIAIJI4Tgx//tg/3+/S5bdFmavy1UOHfeVq97lLV5y1ox2kgN3kRsxH+5C3Jv+JZz8BGHbieg4tfUGxJnk+e7U3EvBaHvz/jZPfFCtHK7axdph9IMQAAmSH98qfVx8Exovu8emrvZ0AsLjFdh79z7VTtxXF1LBJ2unlM7hz5f2MJecnr/LeysmzjwOA+U10//IfBv/VRgL5AAEg50zv/638mrH3ntNnr/YWAtw9v/5eOk4LQhR4qYbcQyfky5X3XH6HKXF86nGAABvuOm+ag5gJXoAKXjyOK8tfb5GzpG61TAIMe+n4GkMq8FOAR8/Jk1cfGayh4NLrR4Dhd112L6EhGOAIqFFz/NBPO3Lz6wW7sW5VMYJRLx1A1FCSJxCCfezCdSOVd36hMoN96c+NgpFXX4rQUMIVgL17lNp50YZrn0mYuXdctYUGJ5dt36Nva0YzZ9ScuxGZEyGkoRQr/zUFGTR7ftu3YJtQnAHYuv5oJx92HDFg9B4QNL3nnrc1EWLcget/WTUudLOwRt4MWGj+3DZvbcDjxbVHggd9CTal7E+m+T+02P9IaNV3GanAoY4TOlNz4BSSbLz993tAq515ybiZcD1KhUPQd8TB1v5krzcF1oLqd9ZeaLn+Jam2phECHkEXmJiOucEfEhbecc9A62UPaZlgKGwZVB5BT4M/uvVh1sRC/tg/2GQhw/Q/kqxpGFUAfO6gZamdMVV+tVO48JYcQLP6r+cwEMD6BCrtmF+ULZzZle6pZveiA3mKivVWGEIEXg9AN17LlCo77XbhrSBXTdV/PYYA5BVUUhaXZOj2z5TMkn3bHXYvOpCvJBM7nhthu0HlFQxIw119Zuys9Z3YvLC/twHIWppW7jg2UFVg3YISrJ0lNMkK+1WTB3KfPfIiWge2pEV+AcT+zj2YlVVpKqu/2Hshe1LLF96u11WFZwVq9m7ByEoEGaeAjj1QfnDlFGidKnSDZ6DmiSvGyBWbUZDy5FbA4o7TzB97BABA2JG4BnBs37VxJ2QkHHsAGC1SAQBVNyi+CU9dOyaupiObQKj15FaB1fvad209+xUFAMEW8g3gY3tkIMbU5WYTKn3h2cDutqNeLo07CkA1HRTn4PHL5NfLZ00uok8/FpEh2H71q6RxB8B8gryTWvWUslsOa2QSXGIb2F7Y6aSmJKjOCc5BiP20K7M+dcgjuRkMb+oyBssPHhJq9bmAdxCoB0hFXnfypkIWwQGhAszPbXFCpdOZe5CgXC1k1bNle3NIbgQtgYO3Hjqk5iprEryDQprLag1N5fD+ixZ8lFGlP1u2/gkqkGoZLVtse+iZfUoFJ0BGK2bZW7gHqmQHUzZ15LMaNNVeiWbgZtFy8qvxD6BEu0JdNjfBtlXq4U19359X4Gho2TLvivyDgQa/b39QLrFMk5ZqZ39g4whwVXX27TvGAHSIQzoTNpM1Cy2f/icROPvhDQ81YwCEj7+7TFbQpJ2Da0UE7j71uOmFGwOg5kPbyCMJ28rJf8KCw9Jq9T1jAODj750salrZt2KxE7hcTbK4QeNAeO+G5RAjTbVw7jngtdS6/mSCf6Dm4+8tA81hm8P+9pr/cwteOYOmUeMfdOebOEV7/aQ5DW/f/IPg+OMXTHe26eIfrH249WCtkYPG/3B54Prtz5qZp4HxDzq9JNdW6aI09c6nAudn5nTfETO7SCL3oPcNpaUANKvmT1Zb8H9xUSsfbWncg85MtdRwtFoeZ59rDMCN15ucdyPuVYi00IrSSBG02H0rgrG4Yy3P3diODbc0zsFAvW+lTm00GtXvnzceBeNybmGr3yemNL4BhAn1fteC0sC4ONJ9mwTjM9T6nDc+9gW/faSaXsfFN4h9tKM5bAOuI5OD8RqHOrjHYgtcg1CXhjU2epLmJBbG7qtnOXVja59tlBrHCqTu4B6awo4SkPDUTmAcx8Eu/bWPbrdhWM/hFgCcvKGGVCMkwdHbF8b09Rc6c3enLzthYNwqgEN7biNk2OFEdM+ndgrGuHZ74WjnH2nwqahoXIJotNvrl0wTqZzhFLIPXgXGez2lI3t15anqH0p5VGocggDRfQdvA+SFYYVYzCfsDzaBvV+6/O9eOBJdZSQRkTeQJIUXjz9GI6cM9S9HL2wOB390/ylnUuxWSRIiZ0CAR8/ckYYOsThSYZMAuy57+MMvf/jhi87OjKRVVVQmBF8ADu5PNUovGSIIBWBzmQoX33DtmT19w9n/VUVUQuVGOE4YgWyjBHnjSLD5XPthl9/aE1e5+c7e+VTZBQM5AdGB/WeEmg0K9fsramDTmkYsv7c3XnP23nPlK73PFwmJKGuAPTv5/OgehorCrlMbzerhYFOr3fp/uPrs3vrAxSd25dutf0iAhCphCQCevGKGIcDd2OdvPjSDzW9s1/vF9RfP25+6+OT2f2/th5X+AJKiMbSw9qHdhkisc2j96nawmdZugz63P7X2gytP7+p3lt83+J/6py0MVgUJlaLKSs3Nf5ydSTaKRlMAcPIvUhFswvt96j53vtT72bWXrP2k/8ve+XrSgMFvld1RYVWQgCQsUQ5Q8SX5HRttD1U5OnKnZPtWjxy8Bez/ru63+kNx2KS6NUWlsqpCCuQhJTUUSFJRoFNUIgKFgQJQGMj/JoFAoKSs+rL8jo0Arog74oQMbuEtZvoEQXKUm2QuI5KJgeS2onqkgnYNuupSjOKI51EVFOjFC7SMrJN6oLnwlloTFuyX5wKdFsRMczNJlXpr9f/0AgA=;" parent="1" vertex="1">
          <mxGeometry x="680" width="151.52" height="160" as="geometry" />
        </mxCell>
        <mxCell id="7ioG4twt27iG43bkYWm2-19" value="Worker #1" style="text;html=1;align=center;verticalAlign=middle;whiteSpace=wrap;rounded=0;" parent="1" vertex="1">
          <mxGeometry x="533.96" y="-40" width="60" height="30" as="geometry" />
        </mxCell>
        <mxCell id="7ioG4twt27iG43bkYWm2-22" value="Worker #2" style="text;html=1;align=center;verticalAlign=middle;whiteSpace=wrap;rounded=0;" parent="1" vertex="1">
          <mxGeometry x="725.76" y="-40" width="60" height="30" as="geometry" />
        </mxCell>
        <mxCell id="7ioG4twt27iG43bkYWm2-24" value="&lt;font style=&quot;font-size: 14px;&quot;&gt;&lt;br&gt;Each worker can &lt;b&gt;run up to 4 tasks concurrently&lt;/b&gt;. With two workers, you could process up to &lt;b&gt;8 tasks simultaneously&lt;/b&gt;.&lt;br&gt;&lt;/font&gt;" style="text;html=1;align=left;verticalAlign=middle;whiteSpace=wrap;rounded=0;" parent="1" vertex="1">
          <mxGeometry x="470" y="-170" width="380" height="120" as="geometry" />
        </mxCell>
        <mxCell id="7ioG4twt27iG43bkYWm2-37" style="edgeStyle=orthogonalEdgeStyle;rounded=0;orthogonalLoop=1;jettySize=auto;html=1;entryX=0;entryY=0.25;entryDx=0;entryDy=0;exitX=1;exitY=0.25;exitDx=0;exitDy=0;" parent="1" source="7ioG4twt27iG43bkYWm2-25" target="7ioG4twt27iG43bkYWm2-34" edge="1">
          <mxGeometry relative="1" as="geometry">
            <Array as="points">
              <mxPoint x="1270" y="372" />
              <mxPoint x="1320" y="372" />
            </Array>
          </mxGeometry>
        </mxCell>
        <mxCell id="5LSz300ZlNnhf7StH6im-1" value="Consume" style="edgeLabel;html=1;align=center;verticalAlign=middle;resizable=0;points=[];" parent="7ioG4twt27iG43bkYWm2-37" vertex="1" connectable="0">
          <mxGeometry x="0.0715" relative="1" as="geometry">
            <mxPoint as="offset" />
          </mxGeometry>
        </mxCell>
        <mxCell id="7ioG4twt27iG43bkYWm2-38" style="edgeStyle=orthogonalEdgeStyle;rounded=0;orthogonalLoop=1;jettySize=auto;html=1;entryX=0;entryY=0.5;entryDx=0;entryDy=0;" parent="1" source="7ioG4twt27iG43bkYWm2-25" target="7ioG4twt27iG43bkYWm2-34" edge="1">
          <mxGeometry relative="1" as="geometry" />
        </mxCell>
        <mxCell id="5LSz300ZlNnhf7StH6im-2" value="Consume" style="edgeLabel;html=1;align=center;verticalAlign=middle;resizable=0;points=[];" parent="7ioG4twt27iG43bkYWm2-38" vertex="1" connectable="0">
          <mxGeometry x="0.0934" y="1" relative="1" as="geometry">
            <mxPoint as="offset" />
          </mxGeometry>
        </mxCell>
        <mxCell id="JaHNwQwy5Wmbeja8fkit-48" style="edgeStyle=orthogonalEdgeStyle;rounded=0;orthogonalLoop=1;jettySize=auto;html=1;entryX=0;entryY=0.75;entryDx=0;entryDy=0;" edge="1" parent="1" source="7ioG4twt27iG43bkYWm2-25" target="JaHNwQwy5Wmbeja8fkit-46">
          <mxGeometry relative="1" as="geometry">
            <Array as="points">
              <mxPoint x="1080" y="768" />
            </Array>
          </mxGeometry>
        </mxCell>
        <mxCell id="JaHNwQwy5Wmbeja8fkit-55" value="Consume" style="edgeLabel;html=1;align=center;verticalAlign=middle;resizable=0;points=[];" vertex="1" connectable="0" parent="JaHNwQwy5Wmbeja8fkit-48">
          <mxGeometry x="0.5858" relative="1" as="geometry">
            <mxPoint as="offset" />
          </mxGeometry>
        </mxCell>
        <mxCell id="JaHNwQwy5Wmbeja8fkit-49" style="edgeStyle=orthogonalEdgeStyle;rounded=0;orthogonalLoop=1;jettySize=auto;html=1;entryX=0;entryY=0.5;entryDx=0;entryDy=0;" edge="1" parent="1" source="7ioG4twt27iG43bkYWm2-25" target="JaHNwQwy5Wmbeja8fkit-46">
          <mxGeometry relative="1" as="geometry">
            <Array as="points">
              <mxPoint x="1120" y="735" />
            </Array>
          </mxGeometry>
        </mxCell>
        <mxCell id="JaHNwQwy5Wmbeja8fkit-54" value="Consume" style="edgeLabel;html=1;align=center;verticalAlign=middle;resizable=0;points=[];" vertex="1" connectable="0" parent="JaHNwQwy5Wmbeja8fkit-49">
          <mxGeometry x="0.5395" y="-2" relative="1" as="geometry">
            <mxPoint as="offset" />
          </mxGeometry>
        </mxCell>
        <mxCell id="JaHNwQwy5Wmbeja8fkit-50" style="edgeStyle=orthogonalEdgeStyle;rounded=0;orthogonalLoop=1;jettySize=auto;html=1;entryX=0;entryY=0.25;entryDx=0;entryDy=0;" edge="1" parent="1" source="7ioG4twt27iG43bkYWm2-25" target="JaHNwQwy5Wmbeja8fkit-46">
          <mxGeometry relative="1" as="geometry">
            <Array as="points">
              <mxPoint x="1160" y="703" />
            </Array>
          </mxGeometry>
        </mxCell>
        <mxCell id="JaHNwQwy5Wmbeja8fkit-53" value="Consume" style="edgeLabel;html=1;align=center;verticalAlign=middle;resizable=0;points=[];" vertex="1" connectable="0" parent="JaHNwQwy5Wmbeja8fkit-50">
          <mxGeometry x="0.4821" relative="1" as="geometry">
            <mxPoint as="offset" />
          </mxGeometry>
        </mxCell>
        <mxCell id="7ioG4twt27iG43bkYWm2-25" value="" style="shape=image;verticalLabelPosition=bottom;labelBackgroundColor=default;verticalAlign=top;aspect=fixed;imageAspect=0;image=https://data.it-novum.com/wp-content/uploads/2021/02/apache_kafka_logo-1200x547.png;" parent="1" vertex="1">
          <mxGeometry x="990" y="345.54" width="230" height="104.84" as="geometry" />
        </mxCell>
        <mxCell id="JaHNwQwy5Wmbeja8fkit-40" style="edgeStyle=orthogonalEdgeStyle;rounded=0;orthogonalLoop=1;jettySize=auto;html=1;" edge="1" parent="1" source="7ioG4twt27iG43bkYWm2-34" target="JaHNwQwy5Wmbeja8fkit-31">
          <mxGeometry relative="1" as="geometry">
            <Array as="points">
              <mxPoint x="1480" y="390" />
              <mxPoint x="1480" y="390" />
            </Array>
          </mxGeometry>
        </mxCell>
        <mxCell id="JaHNwQwy5Wmbeja8fkit-42" style="edgeStyle=orthogonalEdgeStyle;rounded=0;orthogonalLoop=1;jettySize=auto;html=1;" edge="1" parent="1" source="7ioG4twt27iG43bkYWm2-34" target="JaHNwQwy5Wmbeja8fkit-31">
          <mxGeometry relative="1" as="geometry">
            <Array as="points">
              <mxPoint x="1490" y="410" />
              <mxPoint x="1490" y="410" />
            </Array>
          </mxGeometry>
        </mxCell>
        <mxCell id="7ioG4twt27iG43bkYWm2-34" value="" style="shape=image;verticalLabelPosition=bottom;labelBackgroundColor=default;verticalAlign=top;aspect=fixed;imageAspect=0;image=https://flink.apache.org/img/logo/png/1000/flink_squirrel_1000.png;" parent="1" vertex="1">
          <mxGeometry x="1330" y="347.96" width="100" height="100" as="geometry" />
        </mxCell>
        <mxCell id="7ioG4twt27iG43bkYWm2-39" style="edgeStyle=orthogonalEdgeStyle;rounded=0;orthogonalLoop=1;jettySize=auto;html=1;entryX=-0.027;entryY=0.764;entryDx=0;entryDy=0;entryPerimeter=0;" parent="1" source="7ioG4twt27iG43bkYWm2-25" target="7ioG4twt27iG43bkYWm2-34" edge="1">
          <mxGeometry relative="1" as="geometry">
            <Array as="points">
              <mxPoint x="1270" y="424" />
            </Array>
          </mxGeometry>
        </mxCell>
        <mxCell id="5LSz300ZlNnhf7StH6im-3" value="Consume" style="edgeLabel;html=1;align=center;verticalAlign=middle;resizable=0;points=[];" parent="7ioG4twt27iG43bkYWm2-39" vertex="1" connectable="0">
          <mxGeometry x="0.1209" y="-2" relative="1" as="geometry">
            <mxPoint as="offset" />
          </mxGeometry>
        </mxCell>
        <mxCell id="JaHNwQwy5Wmbeja8fkit-14" style="edgeStyle=orthogonalEdgeStyle;rounded=0;orthogonalLoop=1;jettySize=auto;html=1;" edge="1" parent="1" source="JaHNwQwy5Wmbeja8fkit-1" target="7ioG4twt27iG43bkYWm2-34">
          <mxGeometry relative="1" as="geometry" />
        </mxCell>
        <mxCell id="JaHNwQwy5Wmbeja8fkit-1" value="&lt;font style=&quot;color: rgb(255, 255, 255);&quot;&gt;Job Manager&lt;/font&gt;" style="rounded=0;whiteSpace=wrap;html=1;fillColor=light-dark(#e6526f, #512d2b);strokeColor=#000000;gradientColor=light-dark(#ac6ad8, #ededed);gradientDirection=east;" vertex="1" parent="1">
          <mxGeometry x="1320" y="200" width="120" height="60" as="geometry" />
        </mxCell>
        <mxCell id="JaHNwQwy5Wmbeja8fkit-8" value="&lt;b&gt;&lt;font style=&quot;font-size: 16px;&quot;&gt;x4&lt;/font&gt;&lt;/b&gt;" style="text;html=1;align=center;verticalAlign=middle;resizable=0;points=[];autosize=1;strokeColor=none;fillColor=none;" vertex="1" parent="1">
          <mxGeometry x="1280" y="327.95" width="40" height="30" as="geometry" />
        </mxCell>
        <mxCell id="JaHNwQwy5Wmbeja8fkit-13" value="Messages (traffic data) for each road are divided &lt;b&gt;among 4 separate Kafka partitions.&lt;/b&gt;" style="text;whiteSpace=wrap;html=1;" vertex="1" parent="1">
          <mxGeometry x="1230" y="480" width="90" height="100" as="geometry" />
        </mxCell>
        <mxCell id="JaHNwQwy5Wmbeja8fkit-22" style="edgeStyle=orthogonalEdgeStyle;rounded=0;orthogonalLoop=1;jettySize=auto;html=1;" edge="1" parent="1" source="JaHNwQwy5Wmbeja8fkit-19" target="JaHNwQwy5Wmbeja8fkit-1">
          <mxGeometry relative="1" as="geometry">
            <Array as="points">
              <mxPoint x="1330" y="150" />
              <mxPoint x="1330" y="150" />
            </Array>
          </mxGeometry>
        </mxCell>
        <mxCell id="JaHNwQwy5Wmbeja8fkit-24" style="edgeStyle=orthogonalEdgeStyle;rounded=0;orthogonalLoop=1;jettySize=auto;html=1;" edge="1" parent="1" source="JaHNwQwy5Wmbeja8fkit-19" target="JaHNwQwy5Wmbeja8fkit-1">
          <mxGeometry relative="1" as="geometry">
            <Array as="points">
              <mxPoint x="1360" y="160" />
              <mxPoint x="1360" y="160" />
            </Array>
          </mxGeometry>
        </mxCell>
        <mxCell id="JaHNwQwy5Wmbeja8fkit-25" style="edgeStyle=orthogonalEdgeStyle;rounded=0;orthogonalLoop=1;jettySize=auto;html=1;" edge="1" parent="1" source="JaHNwQwy5Wmbeja8fkit-19" target="JaHNwQwy5Wmbeja8fkit-1">
          <mxGeometry relative="1" as="geometry">
            <Array as="points">
              <mxPoint x="1400" y="160" />
              <mxPoint x="1400" y="160" />
            </Array>
          </mxGeometry>
        </mxCell>
        <mxCell id="JaHNwQwy5Wmbeja8fkit-26" style="edgeStyle=orthogonalEdgeStyle;rounded=0;orthogonalLoop=1;jettySize=auto;html=1;" edge="1" parent="1" source="JaHNwQwy5Wmbeja8fkit-19" target="JaHNwQwy5Wmbeja8fkit-1">
          <mxGeometry relative="1" as="geometry">
            <Array as="points">
              <mxPoint x="1430" y="150" />
              <mxPoint x="1430" y="150" />
            </Array>
          </mxGeometry>
        </mxCell>
        <mxCell id="JaHNwQwy5Wmbeja8fkit-19" value="&lt;font style=&quot;color: rgb(255, 255, 255);&quot;&gt;Task Manager&lt;/font&gt;" style="rounded=0;whiteSpace=wrap;html=1;fillColor=light-dark(#e6526f, #512d2b);strokeColor=#000000;gradientColor=light-dark(#FFD966,#EDEDED);gradientDirection=east;" vertex="1" parent="1">
          <mxGeometry x="1320" y="60" width="120" height="60" as="geometry" />
        </mxCell>
        <mxCell id="JaHNwQwy5Wmbeja8fkit-27" value="Single Worker with 4 slots for parallelism." style="text;whiteSpace=wrap;html=1;" vertex="1" parent="1">
          <mxGeometry x="1320" y="20" width="120" height="100" as="geometry" />
        </mxCell>
        <mxCell id="JaHNwQwy5Wmbeja8fkit-28" value="" style="shape=curlyBracket;whiteSpace=wrap;html=1;rounded=1;labelPosition=left;verticalLabelPosition=middle;align=right;verticalAlign=middle;rotation=90;" vertex="1" parent="1">
          <mxGeometry x="1187.5" y="-245" width="70" height="465" as="geometry" />
        </mxCell>
        <mxCell id="JaHNwQwy5Wmbeja8fkit-30" value="&lt;font style=&quot;font-size: 14px;&quot;&gt;The &lt;b&gt;Flink job &lt;/b&gt;is one job that runs &lt;b&gt;4 tasks in parallel&lt;/b&gt;.&amp;nbsp;&lt;/font&gt;&lt;div&gt;&lt;font style=&quot;font-size: 14px;&quot;&gt;&lt;br&gt;&lt;/font&gt;&lt;/div&gt;&lt;div&gt;&lt;font style=&quot;font-size: 14px;&quot;&gt;These tasks collectively consume data from all the Kafka topics, with each Kafka topic &lt;b&gt;having 4 partitions&lt;/b&gt; to enable this parallel consumption.&lt;/font&gt;&lt;/div&gt;" style="text;whiteSpace=wrap;html=1;align=left;" vertex="1" parent="1">
          <mxGeometry x="990" y="-117.5" width="460" height="100" as="geometry" />
        </mxCell>
        <mxCell id="JaHNwQwy5Wmbeja8fkit-31" value="" style="shape=image;verticalLabelPosition=bottom;labelBackgroundColor=default;verticalAlign=top;aspect=fixed;imageAspect=0;image=https://www.bigdatawire.com/wp-content/uploads/2022/06/ApacheDoris.png;" vertex="1" parent="1">
          <mxGeometry x="1545" y="337.96" width="120" height="120" as="geometry" />
        </mxCell>
        <mxCell id="JaHNwQwy5Wmbeja8fkit-33" value="Each of the 4 tasks creates its own &lt;b&gt;batch of size 1000 records&lt;/b&gt; and writes to Doris &lt;b&gt;concurrently&lt;/b&gt;." style="text;whiteSpace=wrap;html=1;" vertex="1" parent="1">
          <mxGeometry x="1430" y="480" width="130" height="100" as="geometry" />
        </mxCell>
        <mxCell id="JaHNwQwy5Wmbeja8fkit-39" style="edgeStyle=orthogonalEdgeStyle;rounded=0;orthogonalLoop=1;jettySize=auto;html=1;" edge="1" parent="1" source="7ioG4twt27iG43bkYWm2-34" target="JaHNwQwy5Wmbeja8fkit-31">
          <mxGeometry relative="1" as="geometry">
            <Array as="points">
              <mxPoint x="1490" y="370" />
              <mxPoint x="1490" y="370" />
            </Array>
          </mxGeometry>
        </mxCell>
        <mxCell id="JaHNwQwy5Wmbeja8fkit-44" style="edgeStyle=orthogonalEdgeStyle;rounded=0;orthogonalLoop=1;jettySize=auto;html=1;" edge="1" parent="1">
          <mxGeometry relative="1" as="geometry">
            <mxPoint x="1430" y="427.96" as="sourcePoint" />
            <mxPoint x="1545" y="427.96" as="targetPoint" />
            <Array as="points">
              <mxPoint x="1480" y="427.96" />
              <mxPoint x="1480" y="427.96" />
            </Array>
          </mxGeometry>
        </mxCell>
        <mxCell id="JaHNwQwy5Wmbeja8fkit-61" style="edgeStyle=orthogonalEdgeStyle;rounded=0;orthogonalLoop=1;jettySize=auto;html=1;" edge="1" parent="1" source="JaHNwQwy5Wmbeja8fkit-46" target="JaHNwQwy5Wmbeja8fkit-56">
          <mxGeometry relative="1" as="geometry" />
        </mxCell>
        <mxCell id="JaHNwQwy5Wmbeja8fkit-62" style="edgeStyle=orthogonalEdgeStyle;rounded=0;orthogonalLoop=1;jettySize=auto;html=1;" edge="1" parent="1" source="JaHNwQwy5Wmbeja8fkit-46" target="JaHNwQwy5Wmbeja8fkit-56">
          <mxGeometry relative="1" as="geometry">
            <Array as="points">
              <mxPoint x="1570" y="840" />
              <mxPoint x="1570" y="840" />
            </Array>
          </mxGeometry>
        </mxCell>
        <mxCell id="JaHNwQwy5Wmbeja8fkit-46" value="" style="shape=image;verticalLabelPosition=bottom;labelBackgroundColor=default;verticalAlign=top;aspect=fixed;imageAspect=0;image=https://pathway.com/assets/content/blog/th-computing-pagerank.png;" vertex="1" parent="1">
          <mxGeometry x="1519.1100000000001" y="670" width="171.79" height="130" as="geometry" />
        </mxCell>
        <mxCell id="JaHNwQwy5Wmbeja8fkit-56" value="" style="shape=image;verticalLabelPosition=bottom;labelBackgroundColor=default;verticalAlign=top;aspect=fixed;imageAspect=0;image=https://min.io/resources/img/logo/MINIO_wordmark.png;" vertex="1" parent="1">
          <mxGeometry x="1468.08" y="890" width="273.85" height="41.31" as="geometry" />
        </mxCell>
        <mxCell id="JaHNwQwy5Wmbeja8fkit-63" style="edgeStyle=orthogonalEdgeStyle;rounded=0;orthogonalLoop=1;jettySize=auto;html=1;" edge="1" parent="1">
          <mxGeometry relative="1" as="geometry">
            <mxPoint x="1640" y="800" as="sourcePoint" />
            <mxPoint x="1640" y="890" as="targetPoint" />
          </mxGeometry>
        </mxCell>
      </root>
    </mxGraphModel>
  </diagram>
</mxfile>
